<svg width="50" height="50" viewBox="0 0 50 50" fill="none" xmlns="http://www.w3.org/2000/svg">
      <circle cx="25" cy="25" r="25" fill="#EFECE8" />
      <path
            d="M27.7 23L21.45 18.5375C20.575 17.9125 19.4125 17.9125 18.55 18.5375L12.3 23C11.6375 23.475 11.25 24.225 11.25 25.0375V35C11.25 35.6875 11.8125 36.25 12.5 36.25H17.5V28.75H22.5V36.25H27.5C28.1875 36.25 28.75 35.6875 28.75 35V25.0375C28.75 24.225 28.3625 23.475 27.7 23Z"
            fill="#C4C4C4" />
      <path
            d="M36.2875 13.75H24.9625C23.6 13.75 22.5 14.85 22.5 16.2125L22.6125 16.325C22.7125 16.3875 22.8125 16.4375 22.9125 16.5L29.1625 20.9625C30.1125 21.6375 30.7875 22.6375 31.0875 23.75H33.75V26.25H31.25V28.75H33.75V31.25H31.25V36.25H36.2875C37.65 36.25 38.75 35.15 38.75 33.7875V16.2125C38.75 14.85 37.65 13.75 36.2875 13.75ZM33.75 21.25H31.25V18.75H33.75V21.25Z"
            fill="#C4C4C4" />
</svg>
      