<svg width="21" height="21" viewBox="0 0 21 21" fill="none" xmlns="http://www.w3.org/2000/svg">
      <path
            d="M10.6291 9.41256C10.6138 9.39295 10.5942 9.37709 10.5718 9.36618C10.5494 9.35528 10.5248 9.34961 10.4999 9.34961C10.475 9.34961 10.4505 9.35528 10.4281 9.36618C10.4057 9.37709 10.3861 9.39295 10.3707 9.41256L8.07387 12.3185C8.05493 12.3427 8.04318 12.3717 8.03996 12.4023C8.03674 12.4328 8.04218 12.4636 8.05566 12.4912C8.06914 12.5188 8.09011 12.5421 8.11618 12.5583C8.14224 12.5746 8.17236 12.5831 8.20307 12.5831H9.71859V17.5542C9.71859 17.6444 9.79242 17.7182 9.88265 17.7182H11.1131C11.2034 17.7182 11.2772 17.6444 11.2772 17.5542V12.5851H12.7968C12.9342 12.5851 13.0101 12.4272 12.926 12.3206L10.6291 9.41256Z"
            fill="#42526E" />
      <path
            d="M16.64 7.52022C15.7008 5.04287 13.3075 3.28125 10.5041 3.28125C7.70068 3.28125 5.30742 5.04082 4.36816 7.51816C2.61064 7.97959 1.3125 9.58125 1.3125 11.4844C1.3125 13.7505 3.14795 15.5859 5.41201 15.5859H6.23438C6.32461 15.5859 6.39844 15.5121 6.39844 15.4219V14.1914C6.39844 14.1012 6.32461 14.0273 6.23438 14.0273H5.41201C4.7209 14.0273 4.0708 13.7525 3.58682 13.2542C3.10488 12.7579 2.84854 12.0894 2.87109 11.3962C2.88955 10.8548 3.07412 10.3462 3.4084 9.91758C3.75088 9.48076 4.23076 9.16289 4.76396 9.02139L5.54121 8.81836L5.82627 8.06777C6.00264 7.6002 6.24873 7.16338 6.5584 6.76758C6.86411 6.37528 7.22624 6.03042 7.63301 5.74424C8.47588 5.15156 9.46846 4.83779 10.5041 4.83779C11.5397 4.83779 12.5323 5.15156 13.3752 5.74424C13.7833 6.03135 14.1442 6.37588 14.4498 6.76758C14.7595 7.16338 15.0056 7.60225 15.1819 8.06777L15.4649 8.81631L16.2401 9.02139C17.3517 9.3208 18.1289 10.3318 18.1289 11.4844C18.1289 12.1632 17.8644 12.803 17.3845 13.2829C17.1491 13.5196 16.8692 13.7073 16.5608 13.8351C16.2524 13.9629 15.9218 14.0282 15.588 14.0273H14.7656C14.6754 14.0273 14.6016 14.1012 14.6016 14.1914V15.4219C14.6016 15.5121 14.6754 15.5859 14.7656 15.5859H15.588C17.8521 15.5859 19.6875 13.7505 19.6875 11.4844C19.6875 9.5833 18.3935 7.98369 16.64 7.52022Z"
            fill="#42526E" />
</svg>
      