<svg width="450" height="30" viewBox="0 0 450 30" fill="none" xmlns="http://www.w3.org/2000/svg">
      <path
            d="M10.032 24.288C8.736 24.288 7.528 24.08 6.408 23.664C5.304 23.232 4.344 22.624 3.528 21.84C2.712 21.056 2.072 20.136 1.608 19.08C1.16 18.024 0.936 16.864 0.936 15.6C0.936 14.336 1.16 13.176 1.608 12.12C2.072 11.064 2.712 10.144 3.528 9.36C4.36 8.576 5.328 7.976 6.432 7.56C7.536 7.128 8.744 6.912 10.056 6.912C11.512 6.912 12.824 7.168 13.992 7.68C15.176 8.176 16.168 8.912 16.968 9.888L14.472 12.192C13.896 11.536 13.256 11.048 12.552 10.728C11.848 10.392 11.08 10.224 10.248 10.224C9.464 10.224 8.744 10.352 8.088 10.608C7.432 10.864 6.864 11.232 6.384 11.712C5.904 12.192 5.528 12.76 5.256 13.416C5 14.072 4.872 14.8 4.872 15.6C4.872 16.4 5 17.128 5.256 17.784C5.528 18.44 5.904 19.008 6.384 19.488C6.864 19.968 7.432 20.336 8.088 20.592C8.744 20.848 9.464 20.976 10.248 20.976C11.08 20.976 11.848 20.816 12.552 20.496C13.256 20.16 13.896 19.656 14.472 18.984L16.968 21.288C16.168 22.264 15.176 23.008 13.992 23.52C12.824 24.032 11.504 24.288 10.032 24.288ZM31.1136 7.2H35.0016V24H31.1136V7.2ZM23.4816 24H19.5936V7.2H23.4816V24ZM31.4016 17.112H23.1936V13.824H31.4016V17.112ZM46.4404 24.288C44.0564 24.288 42.1924 23.624 40.8484 22.296C39.5044 20.968 38.8324 19.072 38.8324 16.608V7.2H42.7204V16.464C42.7204 18.064 43.0484 19.216 43.7044 19.92C44.3604 20.624 45.2804 20.976 46.4644 20.976C47.6484 20.976 48.5684 20.624 49.2244 19.92C49.8804 19.216 50.2084 18.064 50.2084 16.464V7.2H54.0484V16.608C54.0484 19.072 53.3764 20.968 52.0324 22.296C50.6884 23.624 48.8244 24.288 46.4404 24.288ZM52.0564 9.696V7.2H52.7044C53.1524 7.2 53.5044 7.064 53.7604 6.792C54.0164 6.504 54.1444 6.136 54.1444 5.688C54.1444 5.4 54.0964 5.136 54.0004 4.896C53.9204 4.64 53.8084 4.424 53.6644 4.248L55.8724 3.432C56.1124 3.752 56.2964 4.112 56.4244 4.512C56.5684 4.912 56.6404 5.352 56.6404 5.832C56.6404 7.032 56.2804 7.976 55.5604 8.664C54.8564 9.352 53.8724 9.696 52.6084 9.696H52.0564ZM44.2804 5.832L47.5204 2.376H51.5524L47.2084 5.832H44.2804ZM58.1951 24V7.2H61.4111L71.3231 19.296H69.7631V7.2H73.6031V24H70.4111L60.4751 11.904H62.0351V24H58.1951ZM85.6899 24.288C84.3619 24.288 83.1379 24.08 82.0179 23.664C80.9139 23.232 79.9459 22.624 79.1139 21.84C78.2979 21.056 77.6579 20.136 77.1939 19.08C76.7459 18.024 76.5219 16.864 76.5219 15.6C76.5219 14.336 76.7459 13.176 77.1939 12.12C77.6579 11.064 78.3059 10.144 79.1379 9.36C79.9699 8.576 80.9459 7.976 82.0659 7.56C83.1859 7.128 84.4179 6.912 85.7619 6.912C87.2499 6.912 88.5859 7.16 89.7699 7.656C90.9699 8.152 91.9779 8.872 92.7939 9.816L90.2979 12.12C89.6899 11.48 89.0259 11.008 88.3059 10.704C87.5859 10.384 86.8019 10.224 85.9539 10.224C85.1379 10.224 84.3939 10.352 83.7219 10.608C83.0499 10.864 82.4659 11.232 81.9699 11.712C81.4899 12.192 81.1139 12.76 80.8419 13.416C80.5859 14.072 80.4579 14.8 80.4579 15.6C80.4579 16.384 80.5859 17.104 80.8419 17.76C81.1139 18.416 81.4899 18.992 81.9699 19.488C82.4659 19.968 83.0419 20.336 83.6979 20.592C84.3699 20.848 85.1059 20.976 85.9059 20.976C86.6739 20.976 87.4179 20.856 88.1379 20.616C88.8739 20.36 89.5859 19.936 90.2739 19.344L92.4819 22.152C91.5699 22.84 90.5059 23.368 89.2899 23.736C88.0899 24.104 86.8899 24.288 85.6899 24.288ZM88.9299 21.648V15.336H92.4819V22.152L88.9299 21.648ZM102.89 24V7.2H106.106L116.018 19.296H114.458V7.2H118.298V24H115.106L105.17 11.904H106.73V24H102.89ZM133.793 7.2H137.681V24H133.793V7.2ZM126.161 24H122.273V7.2H126.161V24ZM134.081 17.112H125.873V13.824H134.081V17.112ZM139.448 24L146.936 7.2H150.776L158.288 24H154.208L148.064 9.168H149.6L143.432 24H139.448ZM143.192 20.4L144.224 17.448H152.864L153.92 20.4H143.192ZM148.856 29.04C148.392 29.04 148 28.896 147.68 28.608C147.36 28.32 147.2 27.928 147.2 27.432C147.2 26.936 147.36 26.528 147.68 26.208C148 25.904 148.392 25.752 148.856 25.752C149.32 25.752 149.712 25.904 150.032 26.208C150.352 26.528 150.512 26.936 150.512 27.432C150.512 27.928 150.352 28.32 150.032 28.608C149.712 28.896 149.32 29.04 148.856 29.04ZM144.032 5.832L147.2 2.376H150.512L153.68 5.832H150.944L147.632 2.952H150.08L146.768 5.832H144.032ZM160.031 24V7.2H163.247L173.159 19.296H171.599V7.2H175.439V24H172.247L162.311 11.904H163.871V24H160.031ZM197.731 7.2H201.619V24H197.731V7.2ZM190.099 24H186.211V7.2H190.099V24ZM198.019 17.112H189.811V13.824H198.019V17.112ZM213.754 24.288C212.426 24.288 211.194 24.072 210.058 23.64C208.938 23.208 207.962 22.6 207.13 21.816C206.314 21.032 205.674 20.112 205.21 19.056C204.762 18 204.538 16.848 204.538 15.6C204.538 14.352 204.762 13.2 205.21 12.144C205.674 11.088 206.322 10.168 207.154 9.384C207.986 8.6 208.962 7.992 210.082 7.56C211.202 7.128 212.418 6.912 213.73 6.912C215.058 6.912 216.274 7.128 217.378 7.56C218.498 7.992 219.466 8.6 220.282 9.384C221.114 10.168 221.762 11.088 222.226 12.144C222.69 13.184 222.922 14.336 222.922 15.6C222.922 16.848 222.69 18.008 222.226 19.08C221.762 20.136 221.114 21.056 220.282 21.84C219.466 22.608 218.498 23.208 217.378 23.64C216.274 24.072 215.066 24.288 213.754 24.288ZM213.73 20.976C214.482 20.976 215.17 20.848 215.794 20.592C216.434 20.336 216.994 19.968 217.474 19.488C217.954 19.008 218.322 18.44 218.578 17.784C218.85 17.128 218.986 16.4 218.986 15.6C218.986 14.8 218.85 14.072 218.578 13.416C218.322 12.76 217.954 12.192 217.474 11.712C217.01 11.232 216.458 10.864 215.818 10.608C215.178 10.352 214.482 10.224 213.73 10.224C212.978 10.224 212.282 10.352 211.642 10.608C211.018 10.864 210.466 11.232 209.986 11.712C209.506 12.192 209.13 12.76 208.858 13.416C208.602 14.072 208.474 14.8 208.474 15.6C208.474 16.384 208.602 17.112 208.858 17.784C209.13 18.44 209.498 19.008 209.962 19.488C210.442 19.968 211.002 20.336 211.642 20.592C212.282 20.848 212.978 20.976 213.73 20.976ZM223.401 24L230.889 7.2H234.729L242.241 24H238.161L232.017 9.168H233.553L227.385 24H223.401ZM227.145 20.4L228.177 17.448H236.817L237.873 20.4H227.145ZM232.065 5.832L227.721 2.376H231.753L234.993 5.832H232.065ZM243.984 24V7.2H247.2L257.112 19.296H255.552V7.2H259.392V24H256.2L246.264 11.904H247.824V24H243.984ZM273.644 24V10.368H268.268V7.2H282.908V10.368H277.532V24H273.644ZM296.52 7.2H300.408V24H296.52V7.2ZM288.888 24H285V7.2H288.888V24ZM296.808 17.112H288.6V13.824H296.808V17.112ZM302.175 24L309.663 7.2H313.503L321.015 24H316.935L310.791 9.168H312.327L306.159 24H302.175ZM305.919 20.4L306.951 17.448H315.591L316.647 20.4H305.919ZM310.839 5.832L306.495 2.376H310.527L313.767 5.832H310.839ZM322.758 24V7.2H325.974L335.886 19.296H334.326V7.2H338.166V24H334.974L325.038 11.904H326.598V24H322.758ZM353.66 7.2H357.548V24H353.66V7.2ZM346.028 24H342.14V7.2H346.028V24ZM353.948 17.112H345.74V13.824H353.948V17.112ZM368.632 24V7.2H376.264C378.088 7.2 379.696 7.552 381.088 8.256C382.48 8.944 383.568 9.912 384.352 11.16C385.136 12.408 385.528 13.888 385.528 15.6C385.528 17.296 385.136 18.776 384.352 20.04C383.568 21.288 382.48 22.264 381.088 22.968C379.696 23.656 378.088 24 376.264 24H368.632ZM372.52 20.808H376.072C377.192 20.808 378.16 20.6 378.976 20.184C379.808 19.752 380.448 19.144 380.896 18.36C381.36 17.576 381.592 16.656 381.592 15.6C381.592 14.528 381.36 13.608 380.896 12.84C380.448 12.056 379.808 11.456 378.976 11.04C378.16 10.608 377.192 10.392 376.072 10.392H372.52V20.808ZM366.376 16.752V14.16H376.744V16.752H366.376ZM396.613 24.288C395.285 24.288 394.053 24.072 392.917 23.64C391.797 23.208 390.821 22.6 389.989 21.816C389.173 21.032 388.533 20.112 388.069 19.056C387.621 18 387.397 16.848 387.397 15.6C387.397 14.352 387.621 13.2 388.069 12.144C388.533 11.088 389.181 10.168 390.013 9.384C390.845 8.6 391.821 7.992 392.941 7.56C394.061 7.128 395.277 6.912 396.589 6.912C397.917 6.912 399.133 7.128 400.237 7.56C401.357 7.992 402.325 8.6 403.141 9.384C403.973 10.168 404.621 11.088 405.085 12.144C405.549 13.184 405.781 14.336 405.781 15.6C405.781 16.848 405.549 18.008 405.085 19.08C404.621 20.136 403.973 21.056 403.141 21.84C402.325 22.608 401.357 23.208 400.237 23.64C399.133 24.072 397.925 24.288 396.613 24.288ZM396.589 20.976C397.341 20.976 398.029 20.848 398.653 20.592C399.293 20.336 399.853 19.968 400.333 19.488C400.813 19.008 401.181 18.44 401.437 17.784C401.709 17.128 401.845 16.4 401.845 15.6C401.845 14.8 401.709 14.072 401.437 13.416C401.181 12.76 400.813 12.192 400.333 11.712C399.869 11.232 399.317 10.864 398.677 10.608C398.037 10.352 397.341 10.224 396.589 10.224C395.837 10.224 395.141 10.352 394.501 10.608C393.877 10.864 393.325 11.232 392.845 11.712C392.365 12.192 391.989 12.76 391.717 13.416C391.461 14.072 391.333 14.8 391.333 15.6C391.333 16.384 391.461 17.112 391.717 17.784C391.989 18.44 392.357 19.008 392.821 19.488C393.301 19.968 393.861 20.336 394.501 20.592C395.141 20.848 395.837 20.976 396.589 20.976ZM391.765 5.832L394.957 3.096H398.221L401.413 5.832H398.653L395.413 3.672H397.765L394.525 5.832H391.765ZM400.909 3.528L397.141 0.623999H400.957L403.597 3.528H400.909ZM413.292 24L420.78 7.2H424.62L432.132 24H428.052L421.908 9.168H423.444L417.276 24H413.292ZM417.036 20.4L418.068 17.448H426.708L427.764 20.4H417.036ZM420.516 5.832L423.756 2.376H427.788L423.444 5.832H420.516ZM433.875 24V7.2H437.091L447.003 19.296H445.443V7.2H449.283V24H446.091L436.155 11.904H437.715V24H433.875Z"
            fill="url(#paint0_linear_316_5613)" />
      <defs>
            <linearGradient id="paint0_linear_316_5613" x1="0.00220633" y1="15.5003" x2="452.002"
                  y2="15.5003" gradientUnits="userSpaceOnUse">
                  <stop stop-color="#F9EDBC" />
                  <stop offset="0.4577" stop-color="#BF8D34" />
                  <stop offset="1" stop-color="#E0B14E" />
            </linearGradient>
      </defs>
</svg>
      