<svg width="502" height="438" viewBox="0 0 502 438" fill="none" xmlns="http://www.w3.org/2000/svg">
      <g clip-path="url(#clip0_316_5532)">
            <path fill-rule="evenodd" clip-rule="evenodd"
                  d="M376.355 422.221C372.41 418.536 367.486 414.623 362.115 411.014C356.694 407.337 350.893 404.073 345.117 401.838C339.249 399.443 333.55 398.372 327.875 398.785C325.051 399.038 322.302 399.856 319.486 401.045C316.679 402.243 313.955 404.259 311.08 406.637C315.692 407.413 320.346 408.18 325.127 409.42C326.931 409.47 329.831 409.057 333.811 407.564C333.811 407.564 331.686 409.243 329.165 410.364C332.732 411.199 336.315 412.194 339.772 413.13C341.391 413.189 344.198 413.012 348.153 411.714C348.153 411.714 346.028 413.198 343.591 414.117C350.792 416.082 357.208 417.845 361.845 419.11C366.541 420.459 369.416 421.285 369.416 421.285C363.169 420.046 357.427 418.899 352.141 417.845C354.19 419.818 355.69 422.137 355.69 422.137C351.829 418.882 348.853 417.414 347.217 416.79C343.145 415.939 339.376 415.154 335.877 414.421C338.33 417.406 339.966 421.53 339.966 421.53C336.484 417.102 333.575 414.75 331.847 413.594C327.353 412.776 323.314 411.899 319.79 411.343C322.817 415.374 324.714 421.167 324.714 421.167C320.945 415.635 317.707 412.447 315.633 410.744C312.648 410.28 310.026 409.951 307.75 409.808L307.632 409.926C308.703 419.11 311.51 425.814 315.979 430.393C318.196 432.67 320.835 434.475 323.761 435.706C326.678 436.895 329.907 437.604 333.356 437.882C347.133 438.953 363.953 431.996 376.355 422.221Z"
                  fill="#F2F2F2" fill-opacity="0.65" />
            <path fill-rule="evenodd" clip-rule="evenodd"
                  d="M313.323 367.979C315.187 374.894 316.502 384.415 314.512 392.283C313.534 396.238 311.772 399.882 308.905 402.302C306.072 404.798 302.219 406.333 297.287 405.954C299.403 403.668 301.334 401.282 302.953 398.515C303.737 397.689 305.145 396.483 307.463 395.353C307.463 395.353 305.836 395.539 304.293 396.179C305.431 394.105 306.435 392.013 307.295 389.981C307.868 389.205 308.947 387.915 310.853 386.515C310.853 386.515 309.462 386.911 308.214 387.704C311.409 378.976 312.32 371.934 312.32 371.934C311.426 375.535 310.398 378.841 309.31 381.877C309.04 380.021 308.433 378.284 308.433 378.284C308.779 381.565 308.475 383.656 308.222 384.735C307.278 387.147 306.241 389.18 305.229 391.145C304.875 388.598 303.695 385.882 303.695 385.882C304.335 389.568 304.201 392.03 303.998 393.38C302.556 395.876 301.132 398.119 299.698 399.856C299.471 396.491 297.97 392.705 297.97 392.705C298.552 397.132 298.299 400.152 297.97 401.923C296.68 403.381 295.466 404.596 294.336 405.599L294.226 405.583C288.678 394.754 290.592 386.363 294.943 380.494C297.16 377.559 299.993 374.911 303.214 372.996C306.367 370.795 309.917 369.345 313.323 367.979Z"
                  fill="#F2F2F2" fill-opacity="0.65" />
            <path fill-rule="evenodd" clip-rule="evenodd"
                  d="M293.704 410.895C309.31 406.207 322.446 393.886 328.314 376.133L329.183 376.757C323.795 395.387 310.676 408.593 294.665 414.117C291.663 415.104 288.257 415.905 284.657 416.672C281.04 417.33 277.195 417.752 273.342 418.207C269.464 418.46 265.552 418.663 261.808 418.823C258.073 418.823 254.481 418.84 251.21 418.924L251.117 415.407C254.54 415.365 258.124 415.315 261.791 415.264C265.391 415.062 269.067 414.851 272.727 414.648C276.394 414.218 280.053 413.788 283.595 413.231C287.119 412.532 290.525 411.773 293.704 410.895Z"
                  fill="#F2F2F2" fill-opacity="0.65" />
            <path fill-rule="evenodd" clip-rule="evenodd"
                  d="M330.414 367.498C332.344 368.392 333.305 372.946 332.108 377.441C330.936 381.944 328.171 384.938 326.173 383.892C324.149 382.804 323.77 378.394 324.925 373.831C326.088 369.269 328.466 366.596 330.414 367.498Z"
                  fill="#F2F2F2" fill-opacity="0.65" />
            <path fill-rule="evenodd" clip-rule="evenodd"
                  d="M426.118 384.55C421.388 381.953 415.612 379.33 409.542 377.179C403.463 375.037 396.929 373.173 390.816 372.482C387.755 372.136 384.653 371.909 381.752 372.128C378.835 372.33 376.078 372.921 373.363 373.814C368.043 375.754 363.271 379.313 359.047 385.596C363.642 385.098 368.439 384.837 373.338 384.786C375.058 384.339 377.815 383.285 381.305 380.865C381.305 380.865 379.661 382.998 377.478 384.685C381.145 384.617 384.914 384.769 388.43 384.727C390.023 384.398 392.713 383.546 396.237 381.337C396.237 381.337 394.543 383.285 392.393 384.761C399.854 384.904 406.515 385.022 411.312 385.115C416.169 385.242 419.154 385.326 419.154 385.326C412.805 385.807 406.844 385.942 401.608 386.279C404.053 387.662 406.068 389.526 406.068 389.526C401.591 387.4 398.311 386.675 396.574 386.464C392.418 386.65 388.582 386.819 385.015 386.979C388.143 389.264 390.74 392.857 390.74 392.857C386.263 389.416 382.857 387.847 380.892 387.147C378.582 387.266 376.432 387.409 374.417 387.569C372.36 387.67 370.446 387.797 368.658 387.949C372.596 391.111 375.876 396.255 375.876 396.255C370.842 391.82 366.905 389.526 364.476 388.379C361.526 388.775 358.853 389.011 356.618 389.45L356.534 389.593C359.848 398.212 364.24 404.014 369.704 407.354C375.193 410.778 381.541 411.444 388.396 410.322C401.962 407.936 416.514 397.065 426.118 384.55Z"
                  fill="#F2F2F2" fill-opacity="0.65" />
            <path fill-rule="evenodd" clip-rule="evenodd"
                  d="M351.626 347.544C355.1 353.717 358.801 362.733 358.801 370.812C358.92 378.933 355.243 386.472 345.497 388.336C347.006 385.654 348.229 382.762 349.122 379.709C349.679 378.714 350.75 377.213 352.723 375.56C352.723 375.56 351.18 376.133 349.847 377.128C350.438 374.843 350.893 372.574 351.239 370.399C351.576 369.462 352.284 367.919 353.81 366.131C353.81 366.131 352.554 366.848 351.542 367.928C352.023 363.315 352.048 359.258 351.955 356.349C351.913 354.907 351.829 353.718 351.753 352.891C351.669 352.073 351.626 351.618 351.626 351.618C351.719 355.446 351.475 358.803 351.18 362.024C350.463 360.295 349.443 358.761 349.443 358.761C350.581 361.847 350.809 363.939 350.834 365.043C350.514 367.607 350.067 369.918 349.535 372.026C348.566 369.648 346.745 367.312 346.745 367.312C348.279 370.719 348.76 373.131 348.895 374.489C348.111 377.255 347.267 379.751 346.348 381.843C345.295 378.646 342.9 375.349 342.9 375.349C344.561 379.481 345.067 382.475 345.185 384.271C344.3 386 343.414 387.468 342.571 388.716L342.462 388.724C334.384 379.599 334.165 371.014 336.939 364.276C338.305 360.776 340.489 357.673 343.077 354.923C345.581 352.031 348.659 349.729 351.626 347.544Z"
                  fill="#F2F2F2" fill-opacity="0.65" />
            <path fill-rule="evenodd" clip-rule="evenodd"
                  d="M317.952 401.038C322.935 397.715 326.721 396.214 328.736 395.767C335.194 394.08 343.128 395.109 350.927 388.337C360.732 379.583 367.123 366.748 368.194 351.736L369.198 352.133C368.7 367.498 362.748 380.781 353.195 390.201C349.232 394.046 345.202 396.121 341.526 397.175C337.816 398.179 334.587 398.465 331.931 398.752C326.974 398.415 322.244 399.503 317.404 402.092C317.278 401.704 317.303 401.493 317.952 401.038Z"
                  fill="#F2F2F2" fill-opacity="0.65" />
            <path fill-rule="evenodd" clip-rule="evenodd"
                  d="M368.076 342.814C370.201 343.244 372.166 347.309 372.208 352.074C372.166 356.721 370.184 360.246 368.009 359.765C365.834 359.293 364.282 354.975 364.316 350.32C364.375 345.681 365.968 342.435 368.076 342.814Z"
                  fill="#F2F2F2" fill-opacity="0.65" />
            <path fill-rule="evenodd" clip-rule="evenodd"
                  d="M465.246 335.57C454.699 332.846 440.399 331.092 427.997 332.568C424.936 332.981 421.985 333.605 419.153 334.482C416.345 335.367 413.815 336.624 411.455 338.201C409.06 339.753 406.952 341.709 405.173 344.206C403.31 346.634 401.708 349.535 400.477 353.145C404.701 351.424 409.507 350.193 414.085 348.802C415.628 347.933 418.141 346.314 420.864 343.05C420.864 343.05 420.62 343.691 420.156 344.593C419.667 345.479 418.967 346.634 418.107 347.714C421.716 346.803 425.282 345.901 428.705 345.04C430.147 344.307 432.676 342.915 435.425 339.82C435.425 339.82 434.354 342.198 432.575 344.113C439.801 342.435 446.192 340.815 451.023 339.795C455.694 338.648 458.628 338.024 458.628 338.024C452.583 340.056 446.917 341.709 441.833 343.278C444.556 344.02 446.967 345.327 446.967 345.327C442.044 344.332 438.823 344.534 437.061 344.745C432.997 345.909 429.312 347.022 425.965 348.093C429.531 349.51 432.938 352.352 432.938 352.352C427.82 350.176 424.102 349.476 422.019 349.274C417.534 350.581 413.832 351.973 410.359 353.077C414.971 355.177 419.414 359.352 419.414 359.352C413.428 356.282 409.035 355.017 406.388 354.503C403.605 355.59 401.185 356.602 399.069 357.505L399.019 357.665C404.356 365.179 410.047 369.725 416.193 371.631C422.272 373.511 428.697 372.676 435.003 369.86C447.642 364.251 459.007 350.067 465.246 335.57Z"
                  fill="#F2F2F2" fill-opacity="0.65" />
            <path fill-rule="evenodd" clip-rule="evenodd"
                  d="M383.893 318.104C388.784 323.231 394.542 330.998 396.608 338.9C397.619 342.814 397.738 346.777 396.507 350.395C395.132 353.853 392.535 357.108 388.042 359.166C388.885 356.248 389.23 353.001 389.399 349.881C389.694 348.784 390.394 347.098 391.886 344.989C391.886 344.989 390.546 345.934 389.483 347.216C389.509 344.88 389.399 342.577 389.129 340.317C389.222 339.322 389.551 337.669 390.605 335.569C390.605 335.569 389.551 336.564 388.817 337.846C387.578 328.772 384.871 322.017 384.871 322.017C385.883 325.686 386.6 329.109 387.03 332.238C385.908 330.745 384.551 329.514 384.551 329.514C386.414 332.213 387.139 334.186 387.426 335.24C387.704 337.762 387.898 340.165 387.932 342.367C386.397 340.309 384.062 338.496 384.062 338.496C386.389 341.414 387.443 343.632 387.898 344.905C387.814 347.772 387.569 350.353 387.232 352.638C385.403 349.788 382.275 347.199 382.275 347.199C384.922 350.808 386.187 353.625 386.726 355.32C386.288 357.192 385.782 358.828 385.268 360.245L385.166 360.279C375.04 353.397 372.789 345.242 373.759 337.956C374.695 330.501 379.155 323.746 383.893 318.104Z"
                  fill="#F2F2F2" fill-opacity="0.65" />
            <path fill-rule="evenodd" clip-rule="evenodd"
                  d="M364.502 378.318C368.464 373.814 371.795 371.453 373.641 370.534C376.575 368.881 379.931 367.785 383.455 366.157C386.836 364.378 390.428 362.075 393.252 357.774C400.562 346.845 403.699 332.913 401.001 318.079L402.072 318.222C405.343 333.208 402.813 347.511 395.917 359.031C394.542 361.451 392.949 363.357 391.296 364.9C389.661 366.461 387.991 367.7 386.381 368.712C383.042 370.61 379.906 371.596 377.461 372.6C375.066 373.114 372.697 373.814 370.513 374.961C369.417 375.526 368.346 376.193 367.318 376.96C366.255 377.694 365.218 378.503 364.215 379.448C364.004 379.119 363.979 378.908 364.502 378.318Z"
                  fill="#F2F2F2" fill-opacity="0.65" />
            <path fill-rule="evenodd" clip-rule="evenodd"
                  d="M398.656 309.452C400.84 309.359 403.723 312.8 404.929 317.388C406.168 322.001 404.971 325.796 402.771 325.88C400.528 325.948 397.973 322.153 396.886 317.658C395.848 313.196 396.447 309.545 398.656 309.452Z"
                  fill="#F2F2F2" fill-opacity="0.65" />
            <path fill-rule="evenodd" clip-rule="evenodd"
                  d="M490.979 278.307C485.659 278.333 479.226 278.78 472.844 279.808C466.453 280.846 460.02 282.423 454.16 284.691C448.443 287.027 443.233 289.996 439.54 294.255C435.712 298.463 433.36 303.936 432.576 311.433C434.456 310.101 436.446 308.827 438.52 307.579C440.577 306.34 442.584 305.066 444.708 303.86C445.998 302.637 448.098 300.478 449.835 296.599C449.835 296.599 449.742 297.274 449.531 298.269C449.32 299.264 448.966 300.58 448.367 301.819C451.656 300.048 454.758 298.235 457.954 296.582C459.227 295.545 461.259 293.538 463.148 289.844C463.148 289.844 462.692 292.408 461.503 294.735C467.92 291.244 473.99 288.191 478.248 285.931C482.506 283.662 485.212 282.33 485.212 282.33C482.514 284.033 479.934 285.67 477.447 287.238C474.943 288.756 472.54 290.207 470.238 291.607C473.063 291.649 475.736 292.315 475.736 292.315C470.719 292.585 467.582 293.546 465.98 294.221C462.406 296.371 459.109 298.362 456.04 300.209C459.851 300.698 463.856 302.604 463.856 302.604C458.308 301.743 454.632 302.039 452.566 302.359C448.545 304.746 445.155 306.93 442.213 308.937C447.179 309.822 452.507 312.757 452.507 312.757C446.032 311.307 441.37 311.13 438.688 311.281C436.184 312.985 434.178 314.613 432.365 316.021L432.356 316.181C439.346 322.127 446.066 325.171 452.423 325.458C455.585 325.601 458.671 325.087 461.664 323.99C464.674 322.911 467.566 321.258 470.188 319.057C481.022 310.506 488.56 293.934 490.979 278.307Z"
                  fill="#F2F2F2" fill-opacity="0.65" />
            <path fill-rule="evenodd" clip-rule="evenodd"
                  d="M407.881 281.639C413.909 285.4 421.303 291.446 425.35 298.623C427.34 302.182 428.36 305.96 428.048 309.755C427.762 313.559 425.755 317.168 422.079 320.381C422.054 317.261 421.674 314.098 421.076 311.037C421.109 309.907 421.396 308.119 422.239 305.657C422.239 305.657 421.236 306.947 420.519 308.448C419.963 306.171 419.187 303.911 418.42 301.819C418.268 300.841 418.192 299.163 418.715 296.886C418.715 296.886 417.922 298.1 417.518 299.509C416.649 297.392 415.755 295.444 414.887 293.715C413.968 291.961 413.091 290.426 412.332 289.161C410.815 286.631 409.769 285.172 409.769 285.172C411.59 288.427 413.209 291.615 414.423 294.542C412.973 293.378 411.346 292.517 411.346 292.517C413.808 294.668 414.997 296.388 415.528 297.341C416.413 299.711 417.147 301.971 417.754 304.105C415.755 302.486 413.049 301.305 413.049 301.305C416.034 303.565 417.644 305.471 418.411 306.593C419.018 309.376 419.406 311.923 419.617 314.216C417.147 311.906 413.471 310.168 413.471 310.168C416.927 313.01 418.824 315.414 419.802 316.94C419.92 318.922 419.777 320.592 419.625 322.085L419.533 322.144C413.749 320.086 409.845 317.151 407.248 313.896C404.677 310.641 403.429 307.04 402.931 303.312C402.704 301.457 402.712 299.593 402.915 297.746C403.1 295.891 403.361 293.985 403.842 292.155C404.862 288.537 406.144 284.877 407.881 281.639Z"
                  fill="#F2F2F2" fill-opacity="0.65" />
            <path fill-rule="evenodd" clip-rule="evenodd"
                  d="M403.985 344.762C406.573 339.297 409.448 336.387 410.89 334.937C415.662 330.29 423.292 327.499 426.741 317.716C431.142 305.336 430.645 291.025 424.431 277.38L425.485 277.236C432.348 290.915 433.494 305.42 429.658 318.281C426.488 328.991 419.355 332.93 415.097 335.982C412.93 337.096 410.865 338.394 408.976 340.005C407.079 341.608 405.519 343.648 404.002 345.934C403.698 345.664 403.622 345.462 403.985 344.762Z"
                  fill="#F2F2F2" fill-opacity="0.65" />
            <path fill-rule="evenodd" clip-rule="evenodd"
                  d="M420.005 269.612C422.112 268.98 425.746 271.594 428.023 275.726C430.375 279.884 430.223 283.881 428.056 284.48C425.89 285.096 422.483 282.06 420.342 277.995C418.2 273.913 417.855 270.236 420.005 269.612Z"
                  fill="#F2F2F2" fill-opacity="0.65" />
            <path fill-rule="evenodd" clip-rule="evenodd"
                  d="M501.629 216.474C496.494 217.815 490.364 219.839 484.429 222.428C478.476 225.017 472.684 228.155 467.549 231.815C465.011 233.645 462.76 235.626 460.779 237.768C458.73 239.894 457.019 242.196 455.762 244.726C454.573 247.273 453.503 249.963 453.123 253.007C452.778 256.06 452.752 259.366 453.309 263.102C454.801 261.348 456.462 259.619 458.123 257.899C459.733 256.162 461.428 254.441 463.182 252.746C464.185 251.253 465.576 248.622 466.318 244.431C466.318 244.431 466.664 247.138 466.225 249.862C468.881 247.315 471.52 244.802 474.193 242.39C474.682 241.724 475.281 240.788 475.905 239.506C476.47 238.215 477.043 236.588 477.523 234.572C477.523 234.572 477.675 237.161 477.178 239.717C482.447 234.724 487.675 230.271 491.165 227.016C494.732 223.769 497.017 221.804 497.017 221.804C494.833 224.123 492.725 226.35 490.71 228.483C488.712 230.6 486.671 232.599 484.825 234.505C487.574 233.839 490.322 233.822 490.322 233.822C485.525 235.331 482.726 237.043 481.343 238.097C478.51 241.108 475.626 243.824 473.215 246.379C477.034 245.907 481.393 246.75 481.393 246.75C475.812 247.307 472.288 248.496 470.407 249.339C467.161 252.662 464.337 255.605 462.018 258.295C467.018 257.899 472.928 259.417 472.928 259.417C466.293 259.636 461.824 260.64 459.211 261.449C457.212 263.726 455.594 265.775 454.261 267.614L454.304 267.774C462.617 271.805 469.8 273.053 476.006 271.738C482.186 270.439 487.624 266.669 491.637 261.103C499.993 250.073 503.155 232.152 501.629 216.474Z"
                  fill="#F2F2F2" fill-opacity="0.65" />
            <path fill-rule="evenodd" clip-rule="evenodd"
                  d="M422.011 240.417C428.782 242.55 437.432 246.548 443.115 252.485C446.024 255.462 447.878 258.835 448.519 262.588C449.219 266.358 448.19 270.355 445.383 274.361C444.59 271.35 443.46 268.39 442.137 265.582C441.926 264.502 441.606 262.647 441.875 260.075C441.875 260.075 441.176 261.559 440.914 263.203C439.751 261.12 438.503 259.147 437.23 257.317C436.842 256.406 436.378 254.812 436.302 252.476C436.302 252.476 435.839 253.842 435.796 255.31C433.141 251.658 430.24 248.639 428.166 246.581C426.075 244.515 424.701 243.36 424.701 243.36C427.281 246.067 429.557 248.715 431.555 251.279C429.844 250.503 428.056 250.081 428.056 250.081C431.033 251.557 432.559 252.915 433.326 253.708C434.768 255.774 436.024 257.772 437.137 259.687C434.793 258.616 431.876 258.152 431.876 258.152C435.333 259.594 437.348 261.036 438.385 261.93C439.784 264.511 440.678 266.847 441.471 269.014C438.503 267.403 434.506 266.627 434.506 266.627C438.553 268.516 440.982 270.363 442.314 271.595C442.862 273.458 443.3 275.17 443.469 276.638L443.393 276.714C431.134 275.516 425.384 269.495 422.601 262.605C420.08 255.715 420.317 247.56 422.011 240.417Z"
                  fill="#F2F2F2" fill-opacity="0.65" />
            <path fill-rule="evenodd" clip-rule="evenodd"
                  d="M433.925 302.469C435.114 296.549 437.162 293.015 438.166 291.236C439.911 288.36 442.542 285.881 444.666 282.684C445.762 281.107 446.808 279.378 447.668 277.413C448.477 275.432 449.008 273.18 449.261 270.633C450.425 257.545 446.361 243.815 436.935 232.152L437.921 231.756C447.988 243.284 452.735 257.039 452.229 270.464C452.094 273.222 451.664 275.668 451.04 277.852C450.341 280.002 449.413 281.866 448.452 283.519C446.58 286.85 444.236 289.195 442.508 291.219C438.84 294.44 435.83 298.328 434.254 303.616C433.891 303.422 433.765 303.245 433.925 302.469Z"
                  fill="#F2F2F2" fill-opacity="0.65" />
            <path fill-rule="evenodd" clip-rule="evenodd"
                  d="M430.721 225.726C432.609 224.587 436.783 226.215 440.004 229.647C441.614 231.359 442.702 233.206 443.123 234.758C443.477 236.301 443.208 237.558 442.229 238.123C440.273 239.253 436.226 237.17 433.157 233.771C429.996 230.347 428.815 226.864 430.721 225.726Z"
                  fill="#F2F2F2" fill-opacity="0.65" />
            <path fill-rule="evenodd" clip-rule="evenodd"
                  d="M496.721 153.984C487.151 159.221 475.348 167.713 467.456 177.285C465.416 179.705 463.637 182.168 462.245 184.689C460.795 187.245 459.969 189.716 459.185 192.566C458.485 195.374 458.274 198.335 458.662 201.455C458.763 202.231 458.898 203.023 459.067 203.825C459.168 204.221 459.261 204.626 459.362 205.031L459.379 205.106L459.387 205.123C459.387 204.794 459.387 205.039 459.387 204.972L459.396 205.005L459.429 205.157L459.497 205.461L459.64 206.068C460.053 207.687 460.627 209.357 461.369 211.094C462.389 209.02 463.535 206.953 464.758 204.845C465.862 202.728 467.06 200.645 468.316 198.596C468.889 196.935 469.538 194.118 469.446 189.977C469.446 189.977 470.323 192.473 470.525 195.147C472.532 192.128 474.656 189.302 476.494 186.224C477.068 184.681 477.784 181.898 477.801 177.605C477.801 177.605 478.543 180.178 478.644 182.868C482.776 176.534 486.46 170.884 489.116 166.811C491.78 162.78 493.517 160.309 493.517 160.309C490.398 165.892 487.531 171.028 484.883 175.759C487.404 174.409 490.069 173.692 490.069 173.692C485.76 176.442 483.442 178.854 482.329 180.245C480.196 183.956 478.358 187.388 476.604 190.373C478.434 189.775 480.432 189.421 481.983 189.227C483.534 189.033 484.647 189.007 484.647 189.007C479.369 190.719 476.123 192.482 474.471 193.705C472.11 197.5 470.188 200.983 468.619 204.145C473.349 202.416 479.445 202.307 479.445 202.307C477.852 202.779 476.402 203.268 475.095 203.766C474.445 204.027 473.83 204.272 473.24 204.508L473.021 204.6L472.911 204.651L472.886 204.659L472.869 204.668H472.86C472.852 204.609 472.869 205.216 472.86 204.955L472.801 204.98L472.371 205.157C472.093 205.275 471.815 205.393 471.554 205.511C469.42 206.439 467.827 207.324 466.663 208.033C465.298 210.731 464.235 213.118 463.409 215.235L463.485 215.378C472.557 217.217 479.799 216.635 485.491 213.826C488.34 212.427 490.802 210.487 492.918 208.1C493.45 207.502 493.947 206.877 494.436 206.228L495.144 205.233L495.321 204.98L495.33 204.963C495.296 202.855 495.33 204.373 495.321 203.892L495.338 203.867L495.38 203.808L495.456 203.69L495.768 203.226C496.578 201.969 497.303 200.645 497.944 199.262C499.225 196.496 500.186 193.485 500.861 190.323L501.105 189.134C501.173 188.712 501.198 188.147 501.24 187.658C501.308 186.638 501.358 185.609 501.392 184.571C501.459 182.488 501.443 180.363 501.358 178.213C501.274 176.062 501.122 173.895 500.903 171.727C500.692 169.543 500.245 167.671 499.841 165.639C498.989 161.65 497.935 157.728 496.721 153.984Z"
                  fill="#F2F2F2" fill-opacity="0.65" />
            <path fill-rule="evenodd" clip-rule="evenodd"
                  d="M425.3 196.386C432.407 197.036 441.825 199.245 448.857 203.74L450.138 204.609L450.762 205.064L451.066 205.3L451.142 205.359L451.175 205.393L451.201 205.41C451.209 205.511 451.192 204.567 451.201 204.972L451.209 204.98L451.353 205.098C452.111 205.722 452.82 206.38 453.469 207.088C454.767 208.497 455.83 210.074 456.597 211.811C458.216 215.285 458.216 219.418 456.479 224.005C454.961 221.29 453.14 218.693 451.159 216.306C450.695 215.302 449.911 213.59 449.54 211.027C449.54 211.027 449.236 212.637 449.388 214.307C447.744 212.578 446.041 210.968 444.355 209.509C443.756 208.716 442.888 207.291 442.264 205.031C442.264 205.031 442.146 206.481 442.466 207.915C441.581 207.189 440.712 206.515 439.861 205.874L439.228 205.402L438.916 205.174L438.756 205.064L438.68 205.005L438.647 204.98L438.638 204.972C438.672 206.717 438.647 205.452 438.647 205.84H438.638L438.621 205.823C438.191 205.503 437.761 205.191 437.348 204.887C435.687 203.673 434.178 202.627 432.896 201.767C430.333 200.046 428.706 199.094 428.706 199.094C430.316 200.291 431.843 201.463 433.284 202.61C434.001 203.192 434.709 203.757 435.4 204.314L436.412 205.149L436.91 205.562L437.154 205.764L437.272 205.865L437.289 205.882L437.298 205.891C437.289 205.478 437.314 206.81 437.281 204.972L437.306 204.997L437.365 205.039L437.019 204.98L436.935 204.963H436.927L436.943 205.899H436.935H436.91L436.868 205.891L436.699 205.865C436.471 205.84 436.244 205.823 436.033 205.798C435.603 205.773 435.198 205.756 434.852 205.739C434.161 205.747 433.697 205.747 433.697 205.747C433.9 205.79 434.094 205.84 434.288 205.882L434.574 205.95L434.642 205.967H434.65L434.633 204.955H434.642H434.659L434.692 204.963L434.827 204.997C435.181 205.098 435.519 205.191 435.847 205.284C436.488 205.478 437.045 205.68 437.534 205.874C438.512 206.27 439.211 206.65 439.667 206.937C441.581 208.589 443.292 210.217 444.844 211.794C442.306 211.339 439.372 211.617 439.372 211.617C443.073 212.157 445.383 213.051 446.614 213.666C448.621 215.825 450.054 217.858 451.369 219.764C448.098 218.937 444.034 219.182 444.034 219.182C448.427 220 451.235 221.189 452.828 222.057C453.814 223.736 454.666 225.279 455.214 226.662L455.163 226.755C443.006 228.652 435.898 224.258 431.505 218.262C430.409 216.744 429.6 215.117 428.816 213.388C428.023 211.668 427.399 209.863 426.935 208.024C426.708 207.105 426.514 206.177 426.354 205.241L426.328 205.064L426.312 204.98V204.955V204.946C426.295 203.782 426.337 206.515 426.328 206.228L426.32 206.177L426.244 205.756L426.092 204.904L425.839 203.192C425.527 200.924 425.35 198.63 425.3 196.386Z"
                  fill="#F2F2F2" fill-opacity="0.65" />
            <path fill-rule="evenodd" clip-rule="evenodd"
                  d="M452.381 254.062C452.23 251.043 452.432 248.563 452.761 246.581C453.005 244.583 453.385 243.098 453.688 242.12C454.708 238.907 456.572 235.837 457.845 232.219C458.519 230.415 459.101 228.492 459.455 226.375C459.7 224.25 459.7 221.939 459.303 219.409C458.857 216.171 457.904 212.966 456.732 209.846C456.15 208.286 455.509 206.742 454.801 205.233L454.734 205.089L454.7 205.022L454.683 204.988L454.675 204.971L454.666 204.963C454.658 204.668 454.675 205.359 454.666 205.283L454.515 204.997L454.211 204.415L453.579 203.251L452.238 200.949C450.392 197.887 448.301 194.877 445.957 191.934C443.554 189.083 440.679 186.924 437.711 184.74L438.588 184.158C441.716 186.233 444.65 188.501 447.297 191.099C449.785 193.983 452.027 196.934 454.017 199.945C455.012 201.455 455.948 202.973 456.825 204.508L457.145 205.081L457.187 205.149L457.204 205.182C457.204 205.073 457.213 205.435 457.204 204.946L457.213 204.955L457.221 204.971L457.297 205.115L457.44 205.402L457.988 206.548L459.025 208.876C460.307 211.996 461.529 215.226 462.128 218.498C462.684 221.197 462.87 223.685 462.811 225.953C462.71 228.214 462.246 230.246 461.723 232.084C461.192 233.923 460.551 235.567 459.911 237.043C459.177 238.494 458.503 239.818 457.895 241.015C456.445 243.014 455.366 245.181 454.523 247.509C453.629 249.828 453.09 252.324 452.972 255.082C452.592 254.998 452.424 254.863 452.381 254.062Z"
                  fill="#F2F2F2" fill-opacity="0.65" />
            <path fill-rule="evenodd" clip-rule="evenodd"
                  d="M430.29 180.397C431.833 178.896 436.319 179.394 440.172 181.763C444.067 184.15 445.989 187.616 444.413 189.058C442.844 190.517 438.351 189.404 434.43 187.017C430.518 184.614 428.688 181.856 430.29 180.397Z"
                  fill="#F2F2F2" fill-opacity="0.65" />
            <path fill-rule="evenodd" clip-rule="evenodd"
                  d="M476.301 94.5963C472.355 98.2901 468.046 102.979 464.092 108.098C462.119 110.662 460.231 113.327 458.536 116.042C456.791 118.783 455.121 121.617 453.789 124.442C451.091 130.101 449.641 135.717 449.624 141.426C449.666 144.268 450.282 147.068 451.386 149.927C452.373 152.82 453.975 155.721 456.327 158.715C457.178 154.22 458.713 149.514 460.054 144.884C460.163 143.113 460.011 140.161 458.789 136.097C458.789 136.097 460.315 138.331 461.242 140.929C462.338 137.421 463.544 133.912 464.775 130.505C464.986 128.878 464.918 126.086 463.864 122.072C463.864 122.072 465.23 124.282 466.014 126.769C468.266 119.846 470.711 113.428 472.254 108.874C473.788 104.328 474.834 101.503 474.834 101.503C474.049 104.581 473.299 107.533 472.574 110.375C471.765 113.2 470.997 115.916 470.255 118.513C472.355 116.607 474.758 115.266 474.758 115.266C471.267 118.901 469.623 121.752 468.906 123.337C468.375 125.336 467.861 127.259 467.363 129.114C466.807 130.978 466.284 132.765 465.77 134.494C468.915 132.243 473.139 130.893 473.139 130.893C468.476 134.064 465.93 136.813 464.657 138.466C463.527 142.902 462.515 146.832 461.622 150.332C465.871 147.574 471.79 146.073 471.79 146.073C465.981 149.472 462.541 152.499 460.669 154.456C460.037 157.408 459.666 159.971 459.362 162.223L459.463 162.349C468.594 161.919 475.668 159.533 480.415 155.409C485.204 151.302 487.97 145.441 489.091 138.568C490.836 124.965 485.356 107.592 476.301 94.5963Z"
                  fill="#F2F2F2" fill-opacity="0.65" />
            <path fill-rule="evenodd" clip-rule="evenodd"
                  d="M417.905 153.857C421.404 153.166 425.544 152.651 429.81 152.618C434.085 152.584 438.503 153.022 442.289 154.296C446.116 155.552 449.514 157.585 451.892 160.57C452.482 161.312 453.022 162.122 453.477 162.982C453.873 163.859 454.194 164.795 454.43 165.782C454.902 167.764 455.028 169.982 454.733 172.419C452.609 170.159 450.206 168.093 447.71 166.263C447.347 165.841 446.901 165.251 446.445 164.475C445.931 163.707 445.374 162.746 444.86 161.557C444.86 161.557 444.995 163.184 445.56 164.753C443.536 163.488 441.454 162.358 439.447 161.363C438.663 160.747 437.449 159.583 436.26 157.568C436.26 157.568 436.522 158.993 437.205 160.292C433.023 158.386 429.22 157.087 426.455 156.261C423.588 155.468 421.792 155.122 421.792 155.122C425.493 156.21 428.63 157.484 431.53 158.791C429.667 158.934 427.896 159.415 427.896 159.415C431.168 159.297 433.217 159.744 434.262 160.073C436.538 161.194 438.629 162.333 440.535 163.471C437.963 163.657 435.181 164.652 435.181 164.652C438.908 164.255 441.386 164.551 442.735 164.846C445.105 166.457 447.061 168.067 448.772 169.594C445.4 169.602 441.521 170.842 441.521 170.842C445.982 170.555 448.991 171.011 450.745 171.457C452.128 172.832 453.275 174.131 454.219 175.328L454.194 175.43C443.056 180.237 434.776 177.766 429.153 173.035C427.745 171.829 426.497 170.462 425.409 168.978C424.22 167.511 423.124 165.942 422.205 164.281C421.278 162.628 420.485 160.899 419.836 159.128C419.178 157.357 418.403 155.628 417.905 153.857Z"
                  fill="#F2F2F2" fill-opacity="0.65" />
            <path fill-rule="evenodd" clip-rule="evenodd"
                  d="M458.207 202.711C456.352 196.8 456.428 192.515 456.605 190.424C456.706 183.956 460.618 176.804 456.36 167.275C455.72 165.765 455.028 164.289 454.269 162.839C453.418 161.413 452.499 160.014 451.529 158.647C449.59 155.923 447.44 153.343 445.071 150.948C442.508 148.603 439.742 146.444 436.783 144.496C435.307 143.526 433.773 142.607 432.205 141.747C430.577 140.904 428.832 140.153 427.087 139.436L427.761 138.61C429.574 139.268 431.345 139.984 433.073 140.76C434.759 141.553 436.311 142.439 437.862 143.366C440.948 145.222 443.848 147.313 446.546 149.59C449.185 151.892 451.386 154.448 453.511 157.129C455.61 159.82 457.532 162.653 458.898 165.681C460.096 168.16 460.88 170.53 461.369 172.739C461.613 173.844 461.79 174.915 461.891 175.944C461.934 176.981 461.925 177.976 461.874 178.938C461.672 182.767 460.837 185.895 460.374 188.451C458.671 192.92 457.819 198.056 459.067 203.538C458.645 203.58 458.451 203.487 458.207 202.711Z"
                  fill="#F2F2F2" fill-opacity="0.65" />
            <path fill-rule="evenodd" clip-rule="evenodd"
                  d="M418.579 136.788C419.701 134.882 424.127 134.3 428.596 135.768C433.014 137.244 435.973 140.145 434.666 142.11C433.418 144.066 429.043 144.125 424.574 142.666C420.089 141.207 417.458 138.694 418.579 136.788Z"
                  fill="#F2F2F2" fill-opacity="0.65" />
            <path fill-rule="evenodd" clip-rule="evenodd"
                  d="M441.825 42.2088C435.982 51.3758 429.954 64.3715 427.441 76.6756C426.851 79.7369 426.556 82.7223 426.607 85.6149C426.548 88.5835 426.851 91.4423 427.644 94.1579C429.372 99.513 432.357 104.649 438.503 109.194C438.208 104.632 438.318 99.7997 438.638 94.8831C438.343 93.1206 437.399 90.3376 435.173 86.7197C435.173 86.7197 437.23 88.4823 438.798 90.7508C438.967 87.0908 439.228 83.4138 439.549 79.8297C439.448 79.0201 439.279 77.89 438.832 76.5491C438.36 75.2251 437.652 73.6565 436.623 71.8602C436.623 71.8602 438.512 73.6397 439.903 75.8407C440.358 68.5797 440.991 61.8752 441.48 56.9839C441.893 52.1685 442.137 49.2168 442.137 49.2168C442.247 55.5418 441.994 61.5126 441.901 66.8256C443.452 64.4642 445.451 62.5752 445.451 62.5752C442.98 66.9521 442.12 70.1061 441.825 71.8181C441.859 75.9166 441.555 79.914 441.53 83.4307C444.001 80.4706 447.761 78.1093 447.761 78.1093C444.051 82.3344 442.281 85.6234 441.471 87.5293C441.522 92.0833 441.395 96.2071 441.454 99.7997C444.869 96.0722 450.214 93.1459 450.214 93.1459C445.459 97.8769 442.904 101.655 441.598 104.008C441.682 105.501 441.783 106.892 441.918 108.191C442.002 109.506 442.07 110.755 442.188 111.893L442.323 111.986C451.117 109.253 457.212 105.256 460.956 99.9937C464.657 94.7735 465.728 88.4907 465.087 81.5585C463.477 67.9387 453.848 52.4974 441.825 42.2088Z"
                  fill="#F2F2F2" fill-opacity="0.65" />
            <path fill-rule="evenodd" clip-rule="evenodd"
                  d="M400.048 114.112C406.498 111.017 415.671 107.947 423.715 108.487C427.762 108.731 431.581 109.844 434.675 112.113C437.55 114.483 439.658 118.05 440.375 122.882C437.71 121.238 434.835 119.855 431.935 118.725C430.982 118.101 429.633 116.895 428.09 114.828C428.09 114.828 428.242 115.208 428.461 115.781C428.681 116.355 429.009 117.105 429.448 117.814C427.256 117.046 425.038 116.439 422.787 116.009C421.868 115.613 420.384 114.803 418.706 113.159C418.706 113.159 419.33 114.466 420.334 115.545C415.781 114.761 411.734 114.466 408.833 114.365C405.933 114.263 404.137 114.356 404.137 114.356C407.864 114.575 411.253 114.997 414.423 115.52C412.653 116.119 411.059 117.038 411.059 117.038C414.212 116.102 416.312 116.017 417.416 116.068C419.912 116.574 422.273 117.131 424.381 117.78C421.952 118.59 419.499 120.259 419.499 120.259C422.989 118.952 425.409 118.64 426.767 118.607C429.448 119.585 431.8 120.622 433.857 121.668C430.586 122.52 427.146 124.687 427.146 124.687C431.395 123.295 434.439 122.975 436.26 122.967C437.963 123.945 439.447 124.898 440.552 125.859V125.969C430.738 133.5 422.551 132.994 415.713 129.907C409.069 126.618 403.791 120.437 400.048 114.112Z"
                  fill="#F2F2F2" fill-opacity="0.65" />
            <path fill-rule="evenodd" clip-rule="evenodd"
                  d="M451.2 151.234C448.106 146.082 446.917 142.177 446.605 140.136C446.108 136.78 446.007 133.288 445.484 129.46C445.214 127.554 444.809 125.572 444.11 123.548C443.376 121.541 442.17 119.55 440.602 117.526C432.677 107.086 420.089 99.9768 405.334 97.8431L405.781 96.8817C409.71 97.1853 413.2 98.0118 416.708 99.0069C420.148 100.044 423.621 101.259 426.674 102.869C432.719 106.125 438.41 110.223 442.634 115.376C444.447 117.467 445.83 119.542 446.883 121.549C447.803 123.615 448.41 125.606 448.823 127.478C449.598 131.239 449.792 134.444 449.809 137.134C449.472 139.596 449.463 142.042 449.86 144.479C450.239 146.925 451.141 149.328 452.187 151.85C451.79 151.96 451.588 151.917 451.2 151.234Z"
                  fill="#F2F2F2" fill-opacity="0.65" />
            <path fill-rule="evenodd" clip-rule="evenodd"
                  d="M396.38 97.413C396.978 95.2962 401.135 93.6265 405.857 93.9216C408.217 94.065 410.266 94.6722 411.657 95.5071C412.973 96.3926 413.613 97.5058 413.285 98.5937C412.619 100.769 408.251 102.001 403.707 101.604C399.019 101.275 395.781 99.5382 396.38 97.413Z"
                  fill="#F2F2F2" fill-opacity="0.65" />
            <path fill-rule="evenodd" clip-rule="evenodd"
                  d="M395.512 0.000244141C393.826 5.11925 392.308 11.2671 391.322 17.6174C390.361 23.9424 389.669 30.7818 390.091 36.9381C390.58 43.0438 391.718 48.9808 394.61 53.83C395.335 55.0444 396.17 56.1829 397.123 57.2708C398.016 58.4177 399.028 59.4971 400.183 60.5007C402.468 62.5331 405.385 64.2113 408.851 65.7209C407.493 61.3187 406.321 56.6889 405.411 51.8481C404.753 50.1446 403.143 47.6905 400.065 44.7642C400.065 44.7642 402.502 45.9533 404.601 47.7496C403.843 44.1823 403.176 40.5728 402.586 37.0308C401.979 35.5128 400.765 32.8901 397.814 29.9975C397.814 29.9975 398.387 30.3095 399.197 30.8408C399.998 31.3805 401.077 32.1058 401.954 33.0756C400.681 25.8399 399.534 19.2956 398.817 14.4296C398.463 11.984 398.143 10.0612 397.907 8.754C397.696 7.42998 397.578 6.69628 397.578 6.69628C398.421 9.7407 399.129 12.743 399.779 15.644C400.445 18.486 401.085 21.21 401.701 23.8243C402.62 21.1594 404.079 18.8318 404.079 18.8318C402.78 23.6725 402.73 26.9278 402.873 28.6566C403.783 32.7299 404.635 36.508 405.419 40.0078C407.08 36.5333 410.141 33.3202 410.141 33.3202C407.594 38.3211 406.701 41.939 406.397 43.9799C407.586 48.3568 408.379 52.4975 409.39 55.8961C411.768 51.4518 416.228 47.2857 416.228 47.2857C412.797 53.0372 411.27 57.3214 410.596 59.9104C411.566 62.7018 412.257 65.3161 413.083 67.4413L413.235 67.5003C421.085 62.6681 425.992 57.2792 428.293 51.2747C430.705 45.2027 430.106 38.9283 427.754 32.3925C427.147 30.7733 426.464 29.1204 425.612 27.535C424.727 25.9748 423.74 24.4315 422.661 22.8882C420.477 19.8354 418.024 16.7488 415.166 13.9658C412.257 11.2418 409.112 8.64437 405.841 6.23245C402.62 3.75306 398.961 1.88087 395.512 0.000244141Z"
                  fill="#F2F2F2" fill-opacity="0.65" />
            <path fill-rule="evenodd" clip-rule="evenodd"
                  d="M372.814 79.9648C378.337 75.335 386.321 70.2412 394.331 68.6979C398.294 67.9558 402.408 67.9643 405.815 69.5244C409.204 71.1014 412.197 73.9772 414.069 78.4974C411.126 77.536 407.939 76.9541 404.837 76.5831C403.766 76.212 402.105 75.4193 400.14 73.7579C400.14 73.7579 400.975 75.1832 402.181 76.3216C399.828 76.153 397.56 76.0855 395.326 76.1698C394.331 76.018 392.687 75.6048 390.63 74.441C390.63 74.441 391.574 75.5458 392.822 76.3385C383.556 77.1059 376.786 79.2311 376.786 79.2311C380.428 78.5396 383.859 78.0758 387.072 77.7975C385.504 78.8179 384.18 80.0998 384.18 80.0998C387.013 78.4131 389.028 77.7975 390.116 77.5782C392.695 77.4264 395.098 77.4011 397.232 77.5613C395.082 78.9528 393.109 81.1708 393.109 81.1708C396.169 79.0372 398.446 78.1348 399.752 77.7553C402.602 78.0252 405.165 78.4384 407.425 78.936C404.457 80.572 401.675 83.5237 401.675 83.5237C405.444 81.1202 408.327 80.0492 410.089 79.5853C412.02 80.0829 413.521 80.766 414.895 81.3732L414.92 81.4744C411.168 86.3404 407.164 89.1487 403.277 90.5992C399.373 92.0413 395.63 92.0666 391.886 91.4172C388.159 90.7426 384.829 89.0559 381.591 87.0572C378.278 85.1429 375.437 82.5539 372.814 79.9648Z"
                  fill="#F2F2F2" fill-opacity="0.65" />
            <path fill-rule="evenodd" clip-rule="evenodd"
                  d="M431.573 103.3C430.51 102.229 429.617 101.208 428.841 100.23C428.015 99.2853 427.298 98.4167 426.716 97.5986C425.536 95.971 424.811 94.6132 424.381 93.694C423.664 92.1676 423.124 90.5231 422.602 88.8027C422.045 87.1076 421.396 85.3957 420.662 83.6162C419.111 80.1248 417.197 76.2793 412.973 73.2686C410.334 71.2952 407.569 69.4989 404.635 67.9809C401.574 66.5725 398.395 65.3919 395.124 64.4642C393.472 64.0172 391.853 63.5787 390.116 63.3089C388.371 63.0474 386.6 62.8619 384.813 62.7354C381.238 62.4993 377.629 62.5077 373.928 62.8872L374.122 61.8499C389.129 59.7247 403.522 62.9041 414.406 70.6795C419.094 73.724 421.632 77.4852 423.403 80.867C424.279 82.5705 424.937 84.1981 425.485 85.7161C425.991 87.2594 426.328 88.7268 426.725 90.0002C427.289 94.9421 429.364 99.3275 432.711 103.654C432.331 103.848 432.121 103.856 431.573 103.3Z"
                  fill="#F2F2F2" fill-opacity="0.65" />
            <path fill-rule="evenodd" clip-rule="evenodd"
                  d="M365.108 64.7091C365.15 62.5165 368.775 59.8684 373.438 58.9661C378.16 57.9794 381.861 59.4383 381.76 61.6816C381.659 63.9417 377.73 66.2271 373.21 66.9777C368.716 67.6945 365.024 66.9524 365.108 64.7091Z"
                  fill="#F2F2F2" fill-opacity="0.65" />
            <path fill-rule="evenodd" clip-rule="evenodd"
                  d="M355.37 23.0905C355.657 26.5819 356.23 30.5793 357.174 34.467C358.119 38.3548 359.468 42.057 361.146 45.4388C362.849 48.7783 365.201 51.3336 368.219 53.0287C371.204 54.7828 375.057 55.4322 380.158 54.5973C377.958 52.7589 375.909 50.6421 374.012 48.382C373.126 47.7579 371.609 46.7965 368.97 46.3411C368.97 46.3411 370.749 46.105 372.427 46.4254C371.019 44.7135 369.602 43.0606 368.329 41.3486C367.587 40.733 366.179 39.8137 363.835 39.0885C363.835 39.0885 365.412 39.0547 366.921 39.4427C364.383 35.7995 362.14 32.5527 360.513 30.2167C358.911 27.83 357.992 26.2783 357.992 26.2783C360.286 29.2974 362.452 31.9455 364.468 34.3321C364.299 32.5611 364.493 30.7986 364.493 30.7986C365.066 33.8261 365.774 35.7911 366.306 36.6934C367.857 38.6499 369.332 40.3956 370.749 41.9642C370.74 39.527 371.575 36.7272 371.575 36.7272C371.516 40.3282 372.005 42.563 372.41 43.7605C374.282 45.7929 375.9 47.6736 377.494 49.1747C377.587 45.9701 378.91 42.1498 378.91 42.1498C378.615 46.4845 378.995 49.3012 379.382 50.9288C380.757 52.1685 382.097 53.1046 383.21 54.007L383.32 53.9817C386.465 48.6097 387.384 44.0726 386.819 40.0414C386.187 36.0947 384.188 32.5021 380.942 29.9974C377.713 27.4674 373.658 25.4603 369.181 24.3555C364.636 23.3267 359.839 22.9387 355.37 23.0905Z"
                  fill="#F2F2F2" fill-opacity="0.65" />
            <path fill-rule="evenodd" clip-rule="evenodd"
                  d="M125.643 422.221C129.588 418.536 134.512 414.623 139.883 411.013C145.304 407.337 151.105 404.073 156.881 401.838C162.749 399.443 168.448 398.372 174.131 398.785C176.956 399.038 179.704 399.856 182.52 401.045C185.328 402.243 188.051 404.258 190.926 406.637C186.314 407.412 181.66 408.18 176.88 409.42C175.084 409.47 172.175 409.057 168.195 407.564C168.195 407.564 170.32 409.243 172.841 410.364C169.275 411.199 165.683 412.194 162.234 413.13C160.616 413.189 157.808 413.012 153.854 411.713C153.854 411.713 155.978 413.198 158.415 414.117C151.215 416.082 144.799 417.844 140.17 419.109C135.473 420.459 132.59 421.285 132.59 421.285C138.838 420.046 144.579 418.899 149.866 417.844C147.817 419.818 146.325 422.137 146.325 422.137C150.186 418.882 153.162 417.414 154.798 416.79C158.87 415.939 162.639 415.154 166.138 414.421C163.676 417.406 162.049 421.53 162.049 421.53C165.523 417.102 168.44 414.749 170.168 413.594C174.671 412.776 178.692 411.899 182.225 411.342C179.19 415.374 177.293 421.167 177.293 421.167C181.062 415.635 184.308 412.447 186.373 410.744C189.366 410.28 191.98 409.951 194.257 409.808L194.375 409.926C193.304 419.109 190.496 425.814 186.036 430.393C183.819 432.67 181.18 434.475 178.254 435.706C175.337 436.895 172.107 437.604 168.659 437.882C154.865 438.953 138.045 431.996 125.643 422.221Z"
                  fill="#F2F2F2" fill-opacity="0.65" />
            <path fill-rule="evenodd" clip-rule="evenodd"
                  d="M188.666 367.978C186.803 374.894 185.488 384.415 187.477 392.283C188.455 396.238 190.217 399.882 193.084 402.302C195.917 404.798 199.77 406.333 204.702 405.954C202.595 403.668 200.655 401.281 199.037 398.515C198.253 397.689 196.844 396.483 194.534 395.353C194.534 395.353 196.162 395.538 197.704 396.179C196.566 394.105 195.571 392.013 194.703 389.981C194.13 389.205 193.05 387.915 191.145 386.515C191.145 386.515 192.536 386.911 193.784 387.704C190.588 378.975 189.669 371.934 189.669 371.934C190.563 375.535 191.592 378.84 192.688 381.876C192.958 380.021 193.556 378.284 193.556 378.284C193.211 381.564 193.514 383.656 193.767 384.735C194.711 387.147 195.748 389.18 196.76 391.145C197.114 388.598 198.295 385.882 198.295 385.882C197.654 389.568 197.789 392.03 197.991 393.379C199.433 395.876 200.858 398.119 202.283 399.856C202.51 396.491 204.011 392.705 204.011 392.705C203.429 397.132 203.682 400.151 204.011 401.922C205.293 403.381 206.515 404.596 207.645 405.599L207.746 405.582C213.294 394.754 211.38 386.363 207.03 380.493C204.812 377.559 201.979 374.911 198.758 372.996C195.63 370.795 192.081 369.345 188.666 367.978Z"
                  fill="#F2F2F2" fill-opacity="0.65" />
            <path fill-rule="evenodd" clip-rule="evenodd"
                  d="M208.294 410.895C192.688 406.206 179.552 393.885 173.684 376.133L172.815 376.757C178.211 395.387 191.322 408.593 207.333 414.117C210.326 415.104 213.733 415.905 217.341 416.672C220.958 417.33 224.803 417.752 228.656 418.207C232.543 418.46 236.446 418.662 240.19 418.823C243.925 418.823 247.508 418.839 250.788 418.924L250.881 415.407C247.458 415.365 243.874 415.314 240.207 415.264C236.607 415.061 232.931 414.851 229.271 414.648C225.604 414.218 221.945 413.788 218.404 413.231C214.879 412.531 211.473 411.772 208.294 410.895Z"
                  fill="#F2F2F2" fill-opacity="0.65" />
            <path fill-rule="evenodd" clip-rule="evenodd"
                  d="M171.585 367.498C169.654 368.392 168.693 372.946 169.89 377.441C171.071 381.944 173.828 384.938 175.826 383.892C177.849 382.804 178.229 378.394 177.074 373.831C175.91 369.269 173.532 366.595 171.585 367.498Z"
                  fill="#F2F2F2" fill-opacity="0.65" />
            <path fill-rule="evenodd" clip-rule="evenodd"
                  d="M75.8809 384.55C80.6108 381.952 86.3863 379.33 92.4568 377.179C98.5358 375.037 105.07 373.173 111.183 372.482C114.243 372.136 117.346 371.908 120.246 372.128C123.164 372.33 125.921 372.92 128.636 373.814C133.956 375.754 138.728 379.313 142.96 385.596C138.365 385.098 133.568 384.837 128.678 384.786C126.958 384.339 124.201 383.285 120.702 380.865C120.702 380.865 122.354 382.998 124.529 384.685C120.862 384.617 117.085 384.769 113.577 384.727C111.984 384.398 109.294 383.546 105.77 381.337C105.77 381.337 107.465 383.285 109.615 384.761C102.153 384.904 95.4921 385.022 90.6862 385.115C85.8298 385.241 82.8451 385.326 82.8451 385.326C89.1939 385.806 95.1633 385.941 100.399 386.279C97.954 387.662 95.9305 389.526 95.9305 389.526C100.416 387.4 103.687 386.675 105.424 386.464C109.581 386.65 113.417 386.818 116.992 386.979C113.864 389.264 111.267 392.857 111.267 392.857C115.736 389.416 119.15 387.847 121.115 387.147C123.425 387.265 125.575 387.409 127.59 387.569C129.647 387.67 131.561 387.797 133.349 387.948C129.403 391.111 126.131 396.255 126.131 396.255C131.157 391.819 135.094 389.526 137.522 388.379C140.473 388.775 143.146 389.011 145.38 389.45L145.464 389.593C142.151 398.212 137.758 404.014 132.295 407.354C126.798 410.777 120.457 411.444 113.603 410.322C100.037 407.935 85.4841 397.065 75.8809 384.55Z"
                  fill="#F2F2F2" fill-opacity="0.65" />
            <path fill-rule="evenodd" clip-rule="evenodd"
                  d="M150.372 347.544C146.907 353.717 143.189 362.733 143.197 370.812C143.079 378.933 146.755 386.472 156.493 388.336C154.984 385.654 153.762 382.762 152.868 379.709C152.311 378.714 151.241 377.213 149.268 375.56C149.268 375.56 150.811 376.133 152.143 377.128C151.553 374.843 151.097 372.574 150.76 370.398C150.423 369.462 149.714 367.919 148.18 366.131C148.18 366.131 149.445 366.848 150.456 367.927C149.976 363.314 149.951 359.258 150.043 356.349C150.085 354.906 150.17 353.717 150.254 352.891C150.338 352.073 150.381 351.617 150.381 351.617C150.288 355.446 150.532 358.803 150.827 362.024C151.544 360.295 152.564 358.76 152.564 358.76C151.426 361.847 151.198 363.939 151.182 365.043C151.502 367.607 151.949 369.918 152.48 372.026C153.45 369.648 155.271 367.312 155.271 367.312C153.736 370.719 153.256 373.131 153.121 374.489C153.905 377.255 154.748 379.751 155.667 381.842C156.721 378.646 159.115 375.349 159.115 375.349C157.454 379.481 156.949 382.475 156.831 384.271C157.716 386 158.601 387.467 159.444 388.716L159.545 388.724C167.623 379.599 167.842 371.014 165.068 364.276C163.71 360.776 161.518 357.673 158.93 354.923C156.417 352.031 153.34 349.728 150.372 347.544Z"
                  fill="#F2F2F2" fill-opacity="0.65" />
            <path fill-rule="evenodd" clip-rule="evenodd"
                  d="M184.047 401.037C179.064 397.715 175.278 396.214 173.271 395.767C166.813 394.08 158.871 395.109 151.08 388.337C141.275 379.583 134.875 366.748 133.813 351.736L132.81 352.133C133.307 367.498 139.26 380.781 148.812 390.201C152.775 394.046 156.805 396.121 160.481 397.175C164.191 398.178 167.429 398.465 170.076 398.752C175.034 398.415 179.772 399.503 184.603 402.092C184.721 401.704 184.687 401.493 184.047 401.037Z"
                  fill="#F2F2F2" fill-opacity="0.65" />
            <path fill-rule="evenodd" clip-rule="evenodd"
                  d="M133.922 342.814C131.789 343.244 129.833 347.309 129.791 352.074C129.833 356.72 131.815 360.246 133.99 359.765C136.174 359.293 137.716 354.975 137.683 350.32C137.624 345.681 136.022 342.434 133.922 342.814Z"
                  fill="#F2F2F2" fill-opacity="0.65" />
            <path fill-rule="evenodd" clip-rule="evenodd"
                  d="M36.751 335.57C47.2985 332.846 61.598 331.092 74.0005 332.567C77.061 332.981 80.012 333.605 82.8449 334.482C85.661 335.367 88.1904 336.624 90.5427 338.201C92.9372 339.753 95.045 341.709 96.8325 344.205C98.6958 346.634 100.298 349.535 101.529 353.145C97.2962 351.424 92.4988 350.193 87.9206 348.802C86.3776 347.933 83.8651 346.314 81.1418 343.05C81.1418 343.05 81.3779 343.691 81.85 344.593C82.3391 345.479 83.0388 346.634 83.8988 347.714C80.2902 346.803 76.7238 345.9 73.3007 345.04C71.8589 344.307 69.3295 342.915 66.5809 339.82C66.5809 339.82 67.6517 342.198 69.4307 344.113C62.2051 342.434 55.8142 340.815 50.9746 339.795C46.3121 338.648 43.3696 338.024 43.3696 338.024C49.4148 340.056 55.0806 341.709 60.1647 343.278C57.4414 344.02 55.03 345.327 55.03 345.327C59.9539 344.332 63.1747 344.534 64.9453 344.745C69.0092 345.909 72.6936 347.022 76.0409 348.093C72.4744 349.51 69.0682 352.352 69.0682 352.352C74.186 350.176 77.9042 349.476 79.9867 349.274C84.4637 350.581 88.1735 351.972 91.6472 353.077C87.0353 355.177 82.592 359.352 82.592 359.352C88.5782 356.282 92.9709 355.017 95.6184 354.502C98.4007 355.59 100.82 356.602 102.945 357.505L102.987 357.665C97.6503 365.179 91.9592 369.725 85.8127 371.63C79.7338 373.511 73.3176 372.676 67.0025 369.859C54.3555 364.251 42.9901 350.067 36.751 335.57Z"
                  fill="#F2F2F2" fill-opacity="0.65" />
            <path fill-rule="evenodd" clip-rule="evenodd"
                  d="M118.105 318.104C113.215 323.231 107.456 330.998 105.39 338.9C104.387 342.813 104.269 346.777 105.5 350.395C106.866 353.853 109.463 357.108 113.965 359.166C113.122 356.248 112.776 353.001 112.608 349.881C112.313 348.784 111.613 347.098 110.12 344.989C110.12 344.989 111.461 345.934 112.523 347.216C112.498 344.88 112.608 342.577 112.877 340.317C112.785 339.322 112.456 337.669 111.402 335.569C111.402 335.569 112.456 336.564 113.189 337.846C114.429 328.772 117.144 322.017 117.144 322.017C116.132 325.685 115.415 329.109 114.985 332.238C116.107 330.745 117.464 329.514 117.464 329.514C115.601 332.213 114.876 334.186 114.589 335.24C114.302 337.762 114.117 340.165 114.083 342.366C115.609 340.309 117.953 338.496 117.953 338.496C115.635 341.414 114.572 343.631 114.108 344.905C114.193 347.772 114.437 350.353 114.783 352.638C116.613 349.788 119.732 347.199 119.732 347.199C117.085 350.808 115.82 353.625 115.28 355.32C115.719 357.192 116.225 358.828 116.747 360.245L116.849 360.279C126.975 353.397 129.226 345.242 128.256 337.956C127.303 330.501 122.843 323.746 118.105 318.104Z"
                  fill="#F2F2F2" fill-opacity="0.65" />
            <path fill-rule="evenodd" clip-rule="evenodd"
                  d="M137.497 378.318C133.535 373.814 130.204 371.453 128.358 370.534C125.424 368.881 122.068 367.784 118.544 366.157C115.163 364.377 111.571 362.075 108.747 357.774C101.437 346.845 98.3003 332.913 100.998 318.079L99.9276 318.222C96.6562 333.208 99.1856 347.511 106.074 359.031C107.448 361.451 109.042 363.357 110.694 364.9C112.33 366.46 113.999 367.7 115.61 368.712C118.949 370.61 122.085 371.596 124.53 372.6C126.925 373.114 129.294 373.814 131.478 374.961C132.574 375.526 133.636 376.192 134.673 376.96C135.727 377.694 136.772 378.503 137.767 379.448C137.995 379.119 138.02 378.908 137.497 378.318Z"
                  fill="#F2F2F2" fill-opacity="0.65" />
            <path fill-rule="evenodd" clip-rule="evenodd"
                  d="M103.342 309.452C101.158 309.359 98.2749 312.8 97.0776 317.388C95.8382 322.001 97.0355 325.796 99.2361 325.88C101.479 325.947 104.033 322.152 105.121 317.658C106.15 313.196 105.551 309.545 103.342 309.452Z"
                  fill="#F2F2F2" fill-opacity="0.65" />
            <path fill-rule="evenodd" clip-rule="evenodd"
                  d="M11.0186 278.307C16.3387 278.332 22.7718 278.779 29.1543 279.808C35.5452 280.846 41.9783 282.423 47.8381 284.691C53.5545 287.027 58.765 289.996 62.458 294.254C66.2858 298.463 68.6381 303.936 69.4222 311.433C67.542 310.101 65.5438 308.827 63.4781 307.579C61.4125 306.339 59.4143 305.066 57.2896 303.86C55.9996 302.637 53.9086 300.478 52.1718 296.599C52.1718 296.599 52.2645 297.274 52.4753 298.269C52.6861 299.264 53.0402 300.579 53.6388 301.819C50.3422 300.048 47.2479 298.235 44.044 296.582C42.7709 295.545 40.7389 293.538 38.8587 289.844C38.8587 289.844 39.314 292.408 40.5028 294.735C34.0866 291.244 28.0161 288.191 23.7583 285.931C19.5004 283.662 16.794 282.33 16.794 282.33C19.492 284.033 22.0804 285.669 24.5592 287.238C27.0633 288.756 29.4663 290.206 31.768 291.606C28.9435 291.649 26.2708 292.315 26.2708 292.315C31.2874 292.585 34.4239 293.546 36.0258 294.221C39.5923 296.371 42.8973 298.362 45.9663 300.208C42.1554 300.698 38.1505 302.603 38.1505 302.603C43.6983 301.743 47.3743 302.038 49.44 302.359C53.4618 304.745 56.8427 306.93 59.7937 308.937C54.8276 309.822 49.499 312.757 49.499 312.757C55.9743 311.307 60.6368 311.129 63.3179 311.281C65.822 312.985 67.8287 314.612 69.6414 316.021L69.6499 316.181C62.6603 322.127 55.9321 325.171 49.5834 325.458C46.4216 325.601 43.3358 325.087 40.3426 323.99C37.3327 322.911 34.4407 321.258 31.8186 319.057C20.9844 310.505 13.4383 293.934 11.0186 278.307Z"
                  fill="#F2F2F2" fill-opacity="0.65" />
            <path fill-rule="evenodd" clip-rule="evenodd"
                  d="M94.118 281.638C88.0896 285.4 80.7037 291.446 76.6567 298.623C74.6669 302.182 73.6467 305.96 73.9587 309.755C74.2454 313.558 76.252 317.168 79.9281 320.381C79.9534 317.261 80.3328 314.098 80.923 311.037C80.8892 309.907 80.611 308.119 79.7679 305.656C79.7679 305.656 80.7712 306.947 81.4879 308.448C82.0443 306.171 82.8116 303.911 83.5788 301.819C83.7306 300.841 83.8065 299.163 83.2837 296.886C83.2837 296.886 84.0763 298.1 84.4725 299.509C85.341 297.392 86.2431 295.444 87.1031 293.715C88.0221 291.961 88.899 290.426 89.6578 289.161C91.1754 286.631 92.2209 285.172 92.2209 285.172C90.3997 288.427 88.7809 291.615 87.5668 294.541C89.017 293.378 90.6443 292.517 90.6443 292.517C88.1739 294.668 86.9935 296.388 86.4623 297.341C85.577 299.711 84.8435 301.971 84.2365 304.105C86.2431 302.486 88.9411 301.305 88.9411 301.305C85.9565 303.565 84.3461 305.471 83.5788 306.593C82.9718 309.376 82.5924 311.922 82.3731 314.216C84.8435 311.906 88.5196 310.168 88.5196 310.168C85.0712 313.01 83.1741 315.414 82.1877 316.94C82.0696 318.922 82.2214 320.592 82.3647 322.085L82.4575 322.152C88.2413 320.094 92.145 317.159 94.7419 313.904C97.3134 310.649 98.5613 307.048 99.0587 303.32C99.2863 301.465 99.2779 299.601 99.0756 297.754C98.8901 295.899 98.6287 293.993 98.1481 292.163C97.1364 288.537 95.8548 284.877 94.118 281.638Z"
                  fill="#F2F2F2" fill-opacity="0.65" />
            <path fill-rule="evenodd" clip-rule="evenodd"
                  d="M98.0137 344.761C95.4252 339.297 92.5502 336.387 91.1084 334.937C86.3363 330.29 78.706 327.498 75.266 317.716C70.8648 305.336 71.3623 291.024 77.5762 277.379L76.5223 277.236C69.6592 290.915 68.5125 305.42 72.3488 318.281C75.5189 328.991 82.6518 332.93 86.9096 335.982C89.0765 337.096 91.1421 338.394 93.0308 340.005C94.9278 341.607 96.4876 343.648 97.9968 345.934C98.3003 345.664 98.3762 345.461 98.0137 344.761Z"
                  fill="#F2F2F2" fill-opacity="0.65" />
            <path fill-rule="evenodd" clip-rule="evenodd"
                  d="M81.9938 269.612C79.886 268.98 76.2521 271.594 73.9757 275.726C71.6233 279.884 71.7667 283.881 73.9504 284.48C76.1172 285.096 79.5235 282.06 81.665 277.995C83.7981 273.913 84.1354 270.236 81.9938 269.612Z"
                  fill="#F2F2F2" fill-opacity="0.65" />
            <path fill-rule="evenodd" clip-rule="evenodd"
                  d="M0.370478 216.474C5.50514 217.815 11.6431 219.839 17.5703 222.428C23.5228 225.017 29.3152 228.154 34.4414 231.814C36.9792 233.644 39.2304 235.626 41.2117 237.768C43.2605 239.894 44.9721 242.196 46.2284 244.726C47.4172 247.273 48.4964 249.963 48.8674 253.007C49.2215 256.06 49.2383 259.366 48.6819 263.102C47.1895 261.348 45.5286 259.619 43.8676 257.899C42.2572 256.161 40.5625 254.441 38.8172 252.746C37.8139 251.253 36.4227 248.622 35.6808 244.431C35.6808 244.431 35.3351 247.138 35.7735 249.862C33.1177 247.315 30.4871 244.802 27.8144 242.39C27.3254 241.724 26.7267 240.787 26.1028 239.506C25.5379 238.215 24.9646 236.588 24.484 234.572C24.484 234.572 24.3323 237.161 24.8297 239.716C19.5601 234.724 14.3327 230.271 10.8422 227.016C7.26729 223.761 4.97397 221.796 4.97397 221.796C7.16611 224.115 9.26551 226.341 11.2806 228.475C13.2788 230.592 15.3192 232.59 17.1656 234.496C14.417 233.83 11.66 233.813 11.66 233.813C16.4574 235.323 19.2566 237.035 20.6478 238.089C23.4807 241.1 26.3642 243.815 28.7756 246.37C24.9562 245.898 20.5972 246.741 20.5972 246.741C26.1787 247.298 29.703 248.487 31.5832 249.33C34.8292 252.653 37.6537 255.596 39.9723 258.287C34.9726 257.89 29.0622 259.408 29.0622 259.408C35.6977 259.627 40.1662 260.631 42.78 261.441C44.7782 263.718 46.397 265.767 47.7207 267.605L47.687 267.766C39.3653 271.797 32.1902 273.045 25.9848 271.729C19.8131 270.431 14.3664 266.661 10.3531 261.095C2.00615 250.073 -1.15559 232.152 0.370478 216.474Z"
                  fill="#F2F2F2" fill-opacity="0.65" />
            <path fill-rule="evenodd" clip-rule="evenodd"
                  d="M79.9877 240.417C73.2174 242.55 64.5668 246.548 58.8841 252.485C55.9753 255.462 54.1204 258.835 53.4797 262.588C52.7799 266.357 53.8085 270.355 56.6161 274.361C57.4086 271.35 58.5384 268.39 59.8622 265.582C60.0645 264.502 60.3849 262.647 60.1235 260.075C60.1235 260.075 60.8233 261.559 61.0847 263.203C62.2482 261.12 63.4961 259.147 64.7692 257.317C65.157 256.406 65.6207 254.812 65.6966 252.476C65.6966 252.476 66.1603 253.842 66.2025 255.31C68.8584 251.658 71.7587 248.639 73.8328 246.581C75.9238 244.515 77.2897 243.36 77.2897 243.36C74.7013 246.067 72.4332 248.715 70.4266 251.279C72.1381 250.503 73.9256 250.081 73.9256 250.081C70.9493 251.557 69.4233 252.915 68.656 253.707C67.2143 255.774 65.9496 257.772 64.8451 259.687C67.189 258.616 70.1062 258.152 70.1062 258.152C66.6494 259.594 64.6343 261.036 63.5972 261.93C62.1976 264.51 61.3039 266.847 60.5114 269.014C63.4792 267.403 67.4756 266.627 67.4756 266.627C63.4286 268.516 61.0004 270.363 59.6767 271.594C59.1286 273.458 58.6902 275.17 58.5216 276.638L58.5975 276.713C70.8566 275.516 76.6067 269.495 79.3891 262.605C81.9185 255.715 81.6824 247.56 79.9877 240.417Z"
                  fill="#F2F2F2" fill-opacity="0.65" />
            <path fill-rule="evenodd" clip-rule="evenodd"
                  d="M68.0733 302.469C66.8845 296.549 64.8357 293.015 63.8324 291.236C62.0871 288.36 59.4565 285.88 57.3318 282.684C56.2358 281.107 55.1987 279.378 54.3303 277.413C53.5209 275.432 52.9897 273.18 52.7368 270.633C51.5733 257.545 55.6371 243.815 65.0633 232.152L64.0769 231.755C54.0099 243.284 49.2631 257.039 49.769 270.464C49.8954 273.222 50.3339 275.668 50.9578 277.852C51.6576 280.002 52.5766 281.866 53.5377 283.519C55.4179 286.85 57.7534 289.195 59.4818 291.219C63.1494 294.44 66.1594 298.328 67.7361 303.616C68.107 303.422 68.2251 303.245 68.0733 302.469Z"
                  fill="#F2F2F2" fill-opacity="0.65" />
            <path fill-rule="evenodd" clip-rule="evenodd"
                  d="M71.2773 225.726C69.3886 224.587 65.2236 226.215 61.9944 229.647C60.384 231.359 59.2964 233.206 58.8832 234.758C58.5291 236.301 58.7989 237.557 59.777 238.122C61.733 239.253 65.78 237.17 68.8575 233.771C72.0024 230.347 73.1827 226.864 71.2773 225.726Z"
                  fill="#F2F2F2" fill-opacity="0.65" />
            <path fill-rule="evenodd" clip-rule="evenodd"
                  d="M5.27771 153.984C14.8472 159.221 26.6426 167.713 34.5343 177.285C36.5747 179.705 38.3537 182.168 39.7449 184.689C41.1951 187.245 42.0213 189.716 42.8055 192.566C43.5053 195.374 43.716 198.334 43.3282 201.455C43.2355 202.231 43.1006 203.023 42.9235 203.824C42.8308 204.221 42.7296 204.626 42.6284 205.03L42.6115 205.106L42.6031 205.123C42.6115 204.794 42.6031 205.039 42.6031 204.971L42.5947 205.005L42.561 205.157L42.4935 205.461L42.3502 206.068C41.937 207.687 41.3721 209.357 40.6217 211.094C39.6016 209.019 38.4549 206.953 37.2324 204.845C36.1279 202.728 34.9306 200.645 33.6744 198.596C33.101 196.934 32.4518 194.118 32.5446 189.977C32.5446 189.977 31.6677 192.473 31.4654 195.147C29.4503 192.127 27.3256 189.302 25.496 186.224C24.9227 184.681 24.206 181.898 24.1891 177.605C24.1891 177.605 23.4387 180.178 23.346 182.868C19.2147 176.534 15.5386 170.884 12.8828 166.811C10.2185 162.78 8.48161 160.309 8.48161 160.309C11.6012 165.892 14.4678 171.027 17.1153 175.758C14.6027 174.409 11.93 173.692 11.93 173.692C16.23 176.442 18.557 178.853 19.67 180.245C21.8031 183.956 23.6411 187.388 25.3948 190.373C23.5652 189.775 21.567 189.42 20.0156 189.226C18.4643 189.032 17.3513 189.007 17.3513 189.007C22.6378 190.719 25.8754 192.482 27.5279 193.705C29.8887 197.5 31.811 200.982 33.3793 204.145C28.6493 202.416 22.5535 202.306 22.5535 202.306C24.1554 202.779 25.5972 203.268 26.904 203.765C27.5532 204.027 28.1687 204.271 28.7589 204.508L28.9781 204.6L29.0877 204.651L29.113 204.659L29.1299 204.668H29.1383C29.1383 204.609 29.1299 205.216 29.1383 204.955L29.1889 204.98L29.6189 205.157C29.8971 205.275 30.1754 205.393 30.4452 205.511C32.5699 206.439 34.1718 207.324 35.3353 208.033C36.7012 210.731 37.7635 213.118 38.5898 215.235L38.5139 215.378C29.4503 217.217 22.1993 216.635 16.5082 213.826C13.6584 212.426 11.1965 210.487 9.08023 208.1C8.54906 207.501 8.04318 206.877 7.5626 206.228L6.85437 205.233L6.67731 204.98L6.66888 204.963C6.7026 202.855 6.66888 204.373 6.67731 203.892L6.66045 203.867L6.61829 203.808L6.54241 203.69L6.23888 203.226C5.42948 201.969 4.70438 200.645 4.05517 199.262C2.77362 196.496 1.81245 193.485 1.13794 190.323L0.901866 189.134C0.834415 188.712 0.809121 188.147 0.766965 187.658C0.699514 186.637 0.648926 185.609 0.615201 184.571C0.556182 182.488 0.564613 180.363 0.648926 178.213C0.733239 176.062 0.885003 173.895 1.10422 171.727C1.315 169.543 1.76186 167.671 2.16656 165.639C3.00969 161.65 4.06361 157.728 5.27771 153.984Z"
                  fill="#F2F2F2" fill-opacity="0.65" />
            <path fill-rule="evenodd" clip-rule="evenodd"
                  d="M76.6987 196.386C69.5911 197.036 60.1734 199.245 53.1501 203.74L51.8601 204.609L51.2446 205.064L50.9411 205.3L50.8652 205.359L50.8315 205.393L50.8146 205.41C50.8062 205.511 50.823 204.567 50.8146 204.971L50.8062 204.98L50.6628 205.098C49.904 205.722 49.2042 206.38 48.555 207.088C47.2566 208.497 46.1858 210.074 45.427 211.811C43.8166 215.285 43.8082 219.418 45.545 224.005C47.0542 221.29 48.8838 218.692 50.8652 216.306C51.3373 215.302 52.113 213.59 52.484 211.027C52.484 211.027 52.796 212.637 52.6358 214.307C54.2799 212.578 55.983 210.968 57.6693 209.509C58.2679 208.716 59.1363 207.291 59.7602 205.03C59.7602 205.03 59.8783 206.481 59.5579 207.915C60.4432 207.189 61.32 206.515 62.1631 205.874L62.7955 205.402L63.1074 205.174L63.2676 205.064L63.3435 205.005L63.3857 204.98L63.3941 204.971C63.3688 206.717 63.3857 205.452 63.3857 205.84L63.411 205.823C63.841 205.503 64.271 205.191 64.6841 204.887C66.3451 203.673 67.8543 202.627 69.1358 201.767C71.6989 200.046 73.3262 199.093 73.3262 199.093C71.7158 200.291 70.1982 201.463 68.748 202.61C68.0229 203.192 67.3231 203.757 66.6317 204.314L65.6115 205.149L65.1141 205.562L64.8696 205.764L64.7431 205.865L64.7263 205.882L64.7178 205.891H64.7094C64.7178 205.477 64.6925 206.81 64.7263 204.971L64.6925 204.997L64.6335 205.039L64.9792 204.98L65.0635 204.963H65.0719L65.0551 205.899H65.0635H65.0804L65.1225 205.891L65.2912 205.865C65.5188 205.84 65.7464 205.823 65.9572 205.798C66.3872 205.773 66.7919 205.756 67.1376 205.739C67.829 205.747 68.2843 205.747 68.2843 205.747C68.0819 205.789 67.888 205.84 67.6941 205.882L67.4074 205.95L67.34 205.967H67.3315L67.3484 204.955H67.34H67.3231L67.2894 204.963L67.1545 204.997C66.8004 205.098 66.4631 205.191 66.1343 205.283C65.5019 205.477 64.937 205.68 64.448 205.874C63.47 206.27 62.7786 206.65 62.3149 206.936C60.401 208.589 58.6894 210.217 57.1381 211.794C59.6675 211.339 62.61 211.617 62.61 211.617C58.9087 212.157 56.5985 213.051 55.3675 213.666C53.3609 215.825 51.9275 217.858 50.6207 219.763C53.892 218.937 57.9559 219.182 57.9559 219.182C53.5632 220 50.7556 221.189 49.1621 222.057C48.1756 223.736 47.324 225.279 46.776 226.662L46.8266 226.755C58.9845 228.652 66.0921 224.258 70.4933 218.262C71.5809 216.744 72.3987 215.117 73.1829 213.388C73.9838 211.667 74.5993 209.863 75.063 208.024C75.2907 207.105 75.4846 206.177 75.6448 205.241L75.6785 205.064L75.687 204.98L75.6954 204.955V204.946C75.7122 203.782 75.6701 206.515 75.6785 206.228L75.687 206.177L75.7628 205.756L75.9062 204.904L76.1591 203.192C76.4711 200.923 76.6481 198.63 76.6987 196.386Z"
                  fill="#F2F2F2" fill-opacity="0.65" />
            <path fill-rule="evenodd" clip-rule="evenodd"
                  d="M49.618 254.062C49.7698 251.042 49.5674 248.563 49.2302 246.581C48.9856 244.583 48.6062 243.098 48.3027 242.12C47.2825 238.907 45.4192 235.837 44.1376 232.219C43.4716 230.415 42.8814 228.492 42.5273 226.375C42.2828 224.25 42.2912 221.939 42.6875 219.409C43.1343 216.171 44.0871 212.966 45.2506 209.846C45.8323 208.286 46.4815 206.742 47.1813 205.233L47.2488 205.089L47.2825 205.022L47.2994 204.988L47.3078 204.971V204.963C47.3162 204.668 47.3078 205.359 47.3078 205.283L47.4596 204.997L47.7715 204.415L48.4039 203.251L49.7445 200.949C51.5909 197.887 53.6819 194.877 56.0258 191.933C58.4287 189.083 61.3038 186.924 64.2632 184.74L63.3863 184.158C60.2667 186.233 57.3242 188.501 54.6768 191.099C52.1895 193.983 49.9468 196.934 47.957 199.945C46.9621 201.455 46.0263 202.973 45.1494 204.507L44.8206 205.081L44.7784 205.148L44.7616 205.182C44.7616 205.073 44.7531 205.435 44.7616 204.946V204.954L44.7531 204.971L44.6857 205.115L44.5423 205.401L43.9943 206.548L42.9573 208.876C41.6757 211.996 40.4447 215.226 39.8545 218.498C39.2981 221.197 39.1126 223.685 39.1716 225.953C39.2728 228.213 39.7365 230.246 40.2508 232.084C40.782 233.923 41.4228 235.567 42.072 237.043C42.8055 238.494 43.48 239.818 44.0871 241.015C45.5372 243.014 46.6165 245.181 47.4596 247.509C48.3533 249.828 48.8929 252.324 49.0109 255.082C49.4072 254.998 49.5758 254.863 49.618 254.062Z"
                  fill="#F2F2F2" fill-opacity="0.65" />
            <path fill-rule="evenodd" clip-rule="evenodd"
                  d="M71.7072 180.397C70.1727 178.896 65.6788 179.393 61.8257 181.763C57.9304 184.15 56.0081 187.616 57.5763 189.058C59.1445 190.517 63.6384 189.404 67.559 187.017C71.4795 184.614 73.3091 181.856 71.7072 180.397Z"
                  fill="#F2F2F2" fill-opacity="0.65" />
            <path fill-rule="evenodd" clip-rule="evenodd"
                  d="M25.6892 94.5962C29.6435 98.29 33.9434 102.979 37.8977 108.098C39.8707 110.662 41.7508 113.327 43.454 116.042C45.1992 118.783 46.8602 121.616 48.2008 124.442C50.8988 130.1 52.3574 135.717 52.3659 141.426C52.3321 144.268 51.7082 147.068 50.6037 149.927C49.6172 152.82 48.0153 155.721 45.663 158.715C44.8114 154.22 43.2769 149.514 41.9363 144.884C41.8352 143.113 41.9785 140.161 43.201 136.096C43.201 136.096 41.675 138.331 40.7475 140.929C39.6514 137.42 38.4458 133.912 37.2148 130.505C37.004 128.878 37.0715 126.086 38.1338 122.072C38.1338 122.072 36.7679 124.281 35.9838 126.769C33.7242 119.846 31.2876 113.428 29.7447 108.874C28.2102 104.328 27.1647 101.503 27.1647 101.503C27.9488 104.581 28.6992 107.533 29.4243 110.375C30.2337 113.2 31.0094 115.916 31.7513 118.513C29.6519 116.607 27.249 115.266 27.249 115.266C30.7396 118.901 32.3752 121.751 33.1003 123.337C33.6315 125.336 34.1458 127.258 34.6432 129.114C35.1997 130.977 35.7309 132.765 36.2368 134.494C33.0919 132.242 28.8678 130.893 28.8678 130.893C33.5303 134.064 36.0766 136.813 37.3497 138.466C38.4879 142.902 39.4912 146.832 40.3934 150.332C36.1356 147.574 30.2252 146.073 30.2252 146.073C36.0344 149.472 39.4744 152.499 41.3377 154.456C41.9701 157.407 42.341 159.971 42.653 162.223L42.5518 162.349C33.4207 161.919 26.3468 159.533 21.6 155.409C16.8026 151.302 14.0371 145.441 12.9242 138.567C11.1621 124.965 16.6424 107.592 25.6892 94.5962Z"
                  fill="#F2F2F2" fill-opacity="0.65" />
            <path fill-rule="evenodd" clip-rule="evenodd"
                  d="M84.0931 153.857C80.5941 153.166 76.4543 152.651 72.1881 152.617C67.9134 152.584 63.4954 153.022 59.7098 154.296C55.8819 155.552 52.4841 157.585 50.1065 160.57C49.5163 161.312 48.9767 162.122 48.5214 162.982C48.1251 163.859 47.8132 164.795 47.5771 165.782C47.105 167.764 46.9785 169.982 47.2736 172.419C49.3983 170.159 51.8012 168.092 54.2969 166.262C54.6678 165.841 55.1063 165.25 55.5616 164.475C56.0759 163.707 56.6323 162.746 57.1466 161.557C57.1466 161.557 57.0117 163.184 56.4468 164.753C58.4704 163.488 60.5529 162.358 62.5595 161.363C63.3436 160.747 64.5578 159.583 65.7466 157.568C65.7466 157.568 65.4852 158.993 64.8023 160.292C68.9842 158.386 72.7951 157.087 75.5522 156.261C78.4188 155.468 80.2147 155.122 80.2147 155.122C76.5134 156.21 73.3853 157.483 70.4765 158.791C72.3398 158.934 74.1104 159.415 74.1104 159.415C70.8391 159.297 68.7903 159.744 67.7448 160.072C65.4683 161.194 63.3774 162.333 61.4635 163.471C64.0434 163.657 66.8089 164.652 66.8089 164.652C63.0823 164.255 60.6035 164.551 59.2545 164.846C56.8853 166.456 54.9292 168.067 53.2176 169.594C56.5902 169.602 60.4686 170.842 60.4686 170.842C56.0168 170.555 52.9984 171.01 51.2532 171.457C49.8704 172.832 48.7238 174.131 47.7795 175.328L47.8048 175.429C58.9425 180.236 67.2221 177.765 72.8457 173.034C74.2538 171.828 75.5016 170.462 76.5892 168.978C77.778 167.511 78.8741 165.942 79.7931 164.281C80.7206 162.628 81.5131 160.899 82.1623 159.128C82.82 157.357 83.5956 155.628 84.0931 153.857Z"
                  fill="#F2F2F2" fill-opacity="0.65" />
            <path fill-rule="evenodd" clip-rule="evenodd"
                  d="M43.7923 202.711C45.6556 196.799 45.5713 192.515 45.3942 190.424C45.293 183.956 41.3809 176.804 45.6387 167.274C46.2795 165.765 46.9793 164.289 47.7297 162.839C48.5812 161.413 49.5003 160.013 50.4699 158.647C52.4091 155.923 54.559 153.343 56.9282 150.948C59.4914 148.603 62.2568 146.444 65.2162 144.496C66.6917 143.526 68.2262 142.607 69.7944 141.747C71.4217 140.904 73.1669 140.153 74.9122 139.436L74.2377 138.61C72.425 139.267 70.6544 139.984 68.9344 140.76C67.2482 141.553 65.6968 142.438 64.1454 143.366C61.0596 145.221 58.1592 147.313 55.4612 149.59C52.8306 151.892 50.6216 154.447 48.4969 157.129C46.3975 159.819 44.4752 162.653 43.1178 165.681C41.9205 168.16 41.1364 170.53 40.6474 172.739C40.4113 173.844 40.2258 174.915 40.1246 175.944C40.0825 176.981 40.0909 177.976 40.1415 178.938C40.3439 182.766 41.1786 185.895 41.6339 188.45C43.337 192.92 44.197 198.056 42.9407 203.538C43.3454 203.58 43.5478 203.487 43.7923 202.711Z"
                  fill="#F2F2F2" fill-opacity="0.65" />
            <path fill-rule="evenodd" clip-rule="evenodd"
                  d="M83.4186 136.788C82.2973 134.882 77.8708 134.3 73.4022 135.768C68.9842 137.244 66.0248 140.145 67.3317 142.11C68.5795 144.066 72.9554 144.125 77.424 142.666C81.9094 141.207 84.5316 138.694 83.4186 136.788Z"
                  fill="#F2F2F2" fill-opacity="0.65" />
            <path fill-rule="evenodd" clip-rule="evenodd"
                  d="M60.1736 42.2086C66.0165 51.3756 72.0449 64.3713 74.5574 76.6755C75.1476 79.7368 75.4427 82.7222 75.3921 85.6148C75.4511 88.5833 75.1476 91.4422 74.3635 94.1577C72.6266 99.5129 69.6504 104.649 63.504 109.194C63.799 104.632 63.6894 99.7996 63.3691 94.883C63.6641 93.1205 64.6084 90.3375 66.8343 86.7196C66.8343 86.7196 64.7771 88.4821 63.2089 90.7507C63.0487 87.0906 62.7789 83.4137 62.4585 79.8296C62.5596 79.02 62.7283 77.8899 63.1751 76.549C63.6473 75.225 64.3471 73.6564 65.3841 71.8601C65.3841 71.8601 63.4955 73.6395 62.1044 75.8406C61.6491 68.5796 61.0251 61.8751 60.5277 56.9838C60.1146 52.1852 59.8616 49.2336 59.8616 49.2336C59.752 55.5586 60.005 61.5293 60.0893 66.8423C58.5379 64.481 56.5397 62.5919 56.5397 62.5919C59.0016 66.9688 59.8701 70.1229 60.1652 71.8348C60.1314 75.9334 60.4434 79.9308 60.4687 83.4475C57.9983 80.4874 54.2379 78.1261 54.2379 78.1261C57.9477 82.3511 59.7183 85.6401 60.5277 87.546C60.4771 92.1 60.6036 96.2239 60.5446 99.8165C57.1299 96.089 51.7844 93.1626 51.7844 93.1626C56.5481 97.8937 59.0944 101.672 60.4012 104.025C60.3169 105.517 60.2157 106.909 60.0808 108.208C59.9881 109.523 59.9291 110.771 59.811 111.91L59.6761 112.003C50.8823 109.27 44.7865 105.273 41.043 100.01C37.3416 94.7902 36.2708 88.5074 36.9116 81.5753C38.522 67.9386 48.1505 52.4973 60.1736 42.2086Z"
                  fill="#F2F2F2" fill-opacity="0.65" />
            <path fill-rule="evenodd" clip-rule="evenodd"
                  d="M101.96 114.111C95.5098 111.016 86.3366 107.947 78.2931 108.486C74.2461 108.731 70.4183 109.844 67.3324 112.113C64.4489 114.483 62.3495 118.05 61.6328 122.882C64.2887 121.238 67.1638 119.855 70.0726 118.724C71.0253 118.1 72.3743 116.894 73.9173 114.828C73.9173 114.828 73.7655 115.208 73.5463 115.781C73.3271 116.355 72.9982 117.105 72.5598 117.814C74.752 117.046 76.9694 116.439 79.2206 116.009C80.1396 115.613 81.6235 114.803 83.3097 113.158C83.3097 113.158 82.6858 114.466 81.6825 115.545C86.2438 114.761 90.2824 114.466 93.1828 114.364C96.0832 114.263 97.8706 114.356 97.8706 114.356C94.1524 114.575 90.7546 114.997 87.5844 115.52C89.355 116.119 90.9485 117.038 90.9485 117.038C87.8036 116.102 85.6958 116.017 84.5997 116.068C82.1041 116.574 79.7433 117.131 77.6355 117.78C80.0637 118.59 82.5172 120.259 82.5172 120.259C79.0266 118.952 76.6068 118.64 75.2578 118.606C72.5767 119.585 70.2243 120.622 68.1671 121.668C71.4385 122.519 74.8784 124.687 74.8784 124.687C70.629 123.295 67.5853 122.975 65.7642 122.966C64.0611 123.945 62.5856 124.898 61.4727 125.859V125.969C71.2951 133.5 79.4819 132.994 86.3113 129.907C92.9214 126.618 98.2079 120.436 101.96 114.111Z"
                  fill="#F2F2F2" fill-opacity="0.65" />
            <path fill-rule="evenodd" clip-rule="evenodd"
                  d="M50.7982 151.234C53.8925 146.081 55.0814 142.177 55.3849 140.136C55.8908 136.78 55.9835 133.288 56.5062 129.459C56.776 127.553 57.1807 125.572 57.8805 123.548C58.6141 121.541 59.8197 119.55 61.388 117.526C69.3218 107.086 81.9013 99.9766 96.6561 97.843L96.2093 96.8816C92.2803 97.1852 88.7897 98.0117 85.2823 99.0068C81.8423 100.044 78.3771 101.258 75.3165 102.869C69.2712 106.124 63.5801 110.223 59.3476 115.376C57.5349 117.467 56.1521 119.542 55.0982 121.549C54.1792 123.615 53.5721 125.605 53.159 127.478C52.3833 131.239 52.1894 134.443 52.1725 137.134C52.5098 139.596 52.5182 142.042 52.122 144.479C51.7426 146.925 50.8404 149.328 49.7949 151.85C50.1996 151.959 50.4104 151.917 50.7982 151.234Z"
                  fill="#F2F2F2" fill-opacity="0.65" />
            <path fill-rule="evenodd" clip-rule="evenodd"
                  d="M105.619 97.4129C105.02 95.2961 100.864 93.6263 96.142 93.9215C93.7813 94.0649 91.7324 94.6721 90.3413 95.507C89.026 96.3925 88.3852 97.5057 88.714 98.5935C89.3801 100.769 93.7475 102.001 98.292 101.604C102.971 101.275 106.226 99.5381 105.619 97.4129Z"
                  fill="#F2F2F2" fill-opacity="0.65" />
            <path fill-rule="evenodd" clip-rule="evenodd"
                  d="M106.487 0.00012207C108.165 5.11913 109.683 11.267 110.669 17.6173C111.63 23.9422 112.322 30.7816 111.9 36.938C111.411 43.0437 110.273 48.9807 107.381 53.8298C106.656 55.0442 105.813 56.1827 104.868 57.2706C103.975 58.4176 102.963 59.497 101.816 60.5006C99.5314 62.533 96.6226 64.2112 93.1489 65.7208C94.5063 61.3186 95.6783 56.6887 96.5973 51.848C97.255 50.1445 98.8653 47.6904 101.943 44.7641C101.943 44.7641 99.4977 45.9531 97.3983 47.7494C98.1571 44.1822 98.8232 40.5727 99.4134 37.0307C100.02 35.5127 101.235 32.89 104.185 29.9974C104.185 29.9974 103.621 30.3094 102.811 30.8407C102.002 31.3804 100.931 32.1057 100.054 33.0755C101.327 25.8397 102.466 19.2955 103.191 14.4295C103.545 11.9838 103.865 10.061 104.101 8.75388C104.312 7.42985 104.43 6.69616 104.43 6.69616C103.595 9.74058 102.879 12.7428 102.229 15.6439C101.563 18.4859 100.923 21.2099 100.307 23.8242C99.3881 21.1593 97.9295 18.8317 97.9295 18.8317C99.2279 23.6724 99.2785 26.9276 99.1351 28.6565C98.2161 32.7297 97.373 36.5079 96.5805 40.0077C94.9195 36.5332 91.8589 33.3201 91.8589 33.3201C94.4052 38.321 95.2989 41.9389 95.6024 43.9798C94.4136 48.3566 93.6211 52.4974 92.6093 55.896C90.2317 51.4517 85.7715 47.2856 85.7715 47.2856C89.2031 53.0371 90.7291 57.3212 91.4036 59.9103C90.434 62.7017 89.7342 65.316 88.9164 67.4412L88.7646 67.5002C80.9235 62.6595 76.0165 57.2791 73.7063 51.2746C71.295 45.2026 71.902 38.9282 74.2544 32.3924C74.8614 30.7732 75.5443 29.1203 76.3959 27.5348C77.2812 25.9747 78.2677 24.4314 79.3469 22.8881C81.5306 19.8352 83.9925 16.7486 86.8423 13.9657C89.7511 11.2417 92.9044 8.64425 96.1673 6.23233C99.3796 3.75294 103.03 1.88075 106.487 0.00012207Z"
                  fill="#F2F2F2" fill-opacity="0.65" />
            <path fill-rule="evenodd" clip-rule="evenodd"
                  d="M129.184 79.9647C123.662 75.3348 115.677 70.2411 107.676 68.6978C103.713 67.9557 99.5989 67.9641 96.1842 69.5243C92.7948 71.1013 89.8017 73.9771 87.9384 78.4973C90.8809 77.5359 94.0679 76.954 97.1622 76.583C98.233 76.2119 99.894 75.4192 101.858 73.7578C101.858 73.7578 101.024 75.183 99.8181 76.3215C102.17 76.1529 104.438 76.0854 106.664 76.1697C107.659 76.0179 109.312 75.6047 111.361 74.4409C111.361 74.4409 110.416 75.5457 109.168 76.3384C118.434 77.1058 125.205 79.231 125.205 79.231C121.562 78.5395 118.131 78.0757 114.919 77.7974C116.487 78.8178 117.81 80.0996 117.81 80.0996C114.986 78.413 112.962 77.7973 111.875 77.5781C109.303 77.4263 106.892 77.401 104.759 77.5612C106.917 78.9527 108.882 81.1707 108.882 81.1707C105.821 79.037 103.545 78.1347 102.238 77.7552C99.3797 78.025 96.825 78.4383 94.5654 78.9358C97.5248 80.5719 100.316 83.5236 100.316 83.5236C96.5383 81.1201 93.6632 80.049 91.9011 79.5852C89.9703 80.0828 88.4696 80.7659 87.0868 81.3731L87.0615 81.4743C90.8219 86.3403 94.8183 89.1486 98.7052 90.5991C102.609 92.0412 106.352 92.0665 110.096 91.4171C113.822 90.7425 117.153 89.0558 120.39 87.0571C123.721 85.1428 126.562 82.5537 129.184 79.9647Z"
                  fill="#F2F2F2" fill-opacity="0.65" />
            <path fill-rule="evenodd" clip-rule="evenodd"
                  d="M70.4261 103.299C71.48 102.228 72.3821 101.208 73.1578 100.23C73.9841 99.2852 74.7007 98.4165 75.2825 97.5985C76.4629 95.9709 77.188 94.6131 77.618 93.6939C78.343 92.1675 78.8742 90.523 79.397 88.8026C79.9534 87.1075 80.5942 85.3955 81.3362 83.6161C82.8791 80.1247 84.793 76.2791 89.0255 73.2684C91.6645 71.2951 94.43 69.4988 97.3641 67.9808C100.416 66.5724 103.603 65.3918 106.875 64.4641C108.527 64.0171 110.138 63.5786 111.883 63.3087C113.628 63.0473 115.399 62.8618 117.186 62.7353C120.769 62.4991 124.37 62.5076 128.071 62.8871L127.885 61.8498C112.878 59.7246 98.4854 62.9039 87.6006 70.6794C82.9128 73.7238 80.3666 77.4851 78.6044 80.8668C77.7276 82.5704 77.0699 84.198 76.5219 85.716C76.016 87.2593 75.6788 88.7267 75.2909 90.0001C74.726 94.942 72.6519 99.3273 69.3047 103.654C69.6588 103.848 69.878 103.856 70.4261 103.299Z"
                  fill="#F2F2F2" fill-opacity="0.65" />
            <path fill-rule="evenodd" clip-rule="evenodd"
                  d="M136.89 64.709C136.84 62.5163 133.223 59.8683 128.56 58.9659C123.839 57.9792 120.137 59.4382 120.238 61.6815C120.34 63.9416 124.269 66.227 128.796 66.9776C133.29 67.6944 136.974 66.9523 136.89 64.709Z"
                  fill="#F2F2F2" fill-opacity="0.65" />
            <path fill-rule="evenodd" clip-rule="evenodd"
                  d="M146.62 23.0904C146.342 26.5818 145.76 30.5792 144.815 34.4669C143.871 38.3547 142.522 42.0569 140.844 45.4387C139.141 48.7782 136.789 51.3335 133.77 53.0286C130.786 54.7827 126.941 55.4321 121.84 54.5972C124.041 52.7587 126.09 50.642 127.978 48.3819C128.872 47.7578 130.381 46.7964 133.02 46.341C133.02 46.341 131.249 46.1049 129.563 46.4253C130.98 44.7134 132.396 43.0605 133.661 41.3485C134.411 40.7329 135.811 39.8136 138.155 39.0884C138.155 39.0884 136.578 39.0546 135.069 39.4426C137.598 35.7994 139.849 32.5526 141.477 30.2166C143.079 27.8299 143.998 26.2782 143.998 26.2782C141.696 29.2973 139.537 31.9454 137.514 34.332C137.683 32.561 137.489 30.7985 137.489 30.7985C136.924 33.826 136.207 35.791 135.684 36.6933C134.133 38.6498 132.658 40.3955 131.241 41.9641C131.249 39.5269 130.415 36.7271 130.415 36.7271C130.474 40.3281 129.985 42.5629 129.58 43.7604C127.708 45.7929 126.09 47.6735 124.496 49.1746C124.412 45.97 123.08 42.1497 123.08 42.1497C123.366 46.4844 122.995 49.3011 122.599 50.9287C121.225 52.1684 119.876 53.1045 118.771 54.0069L118.678 53.9731C115.534 48.6011 114.606 44.064 115.188 40.0329C115.812 36.0861 117.818 32.4935 121.064 29.9889C124.294 27.4589 128.349 25.4517 132.826 24.347C137.362 23.3266 142.151 22.9386 146.62 23.0904Z"
                  fill="#F2F2F2" fill-opacity="0.65" />
      </g>
      <defs>
            <clipPath id="clip0_316_5532">
                  <rect width="502" height="438" fill="white" />
            </clipPath>
      </defs>
</svg>
      