<svg width="150" height="150" viewBox="0 0 150 150" fill="none" xmlns="http://www.w3.org/2000/svg">
      <path
            d="M75 150C33.6469 150 0 116.357 0 75C0 33.6469 33.6433 0 75 0C116.357 0 150 33.6433 150 75C150 116.357 116.357 150 75 150ZM75 1.18389C34.2966 1.18389 1.18389 34.2966 1.18389 75C1.18389 115.703 34.2966 148.82 75 148.82C115.703 148.82 148.816 115.707 148.816 75.0036C148.82 34.2966 115.703 1.18389 75 1.18389Z"
            fill="url(#paint0_linear_316_5622)" />
      <path
            d="M75.1849 140.964L75.1813 139.769C75.9681 139.765 76.7549 139.751 77.538 139.722L77.5852 140.916C76.7875 140.946 75.9862 140.96 75.1849 140.964ZM72.7883 140.927C71.987 140.902 71.1893 140.858 70.3916 140.807L70.4714 139.612C71.2509 139.667 72.0377 139.707 72.8245 139.732L72.7883 140.927ZM79.9782 140.778L79.8912 139.586C80.678 139.528 81.4611 139.455 82.2371 139.367L82.3676 140.555C81.5735 140.646 80.7795 140.719 79.9782 140.778ZM68.0022 140.595C67.2046 140.511 66.4105 140.412 65.6201 140.303L65.7833 139.119C66.5592 139.228 67.3387 139.327 68.1219 139.407L68.0022 140.595ZM84.7461 140.248L84.5721 139.064C85.3516 138.947 86.1275 138.819 86.8962 138.677L87.1101 139.853C86.3269 139.999 85.5401 140.131 84.7461 140.248ZM63.2525 139.919C62.462 139.776 61.6789 139.619 60.8993 139.451L61.1495 138.282C61.9145 138.45 62.6868 138.603 63.4627 138.742L63.2525 139.919ZM89.4632 139.374L89.2058 138.205C89.9745 138.033 90.7395 137.847 91.4973 137.65L91.7982 138.808C91.0223 139.009 90.2464 139.199 89.4632 139.374ZM58.5643 138.899C57.7884 138.702 57.0161 138.487 56.2511 138.26L56.5846 137.113C57.3352 137.336 58.093 137.544 58.8544 137.741L58.5643 138.899ZM94.1042 138.154L93.7634 137.007C94.5176 136.78 95.2645 136.539 96.0078 136.283L96.3885 137.416C95.6343 137.679 94.8729 137.924 94.1042 138.154ZM53.9596 137.536C53.1982 137.281 52.4404 137.01 51.6898 136.729L52.1068 135.607C52.8428 135.885 53.5861 136.152 54.333 136.404L53.9596 137.536ZM98.6473 136.597L98.2231 135.479C98.9592 135.194 99.688 134.898 100.409 134.591L100.87 135.695C100.138 136.009 99.3943 136.309 98.6473 136.597ZM49.4564 135.834C48.7131 135.523 47.9807 135.198 47.2555 134.862L47.7522 133.777C48.4665 134.105 49.188 134.427 49.9132 134.734L49.4564 135.834ZM103.06 134.716L102.556 133.634C103.267 133.302 103.97 132.951 104.666 132.593L105.206 133.656C104.499 134.021 103.781 134.376 103.06 134.716ZM45.0909 133.806C44.373 133.44 43.666 133.064 42.9662 132.673L43.5427 131.628C44.2316 132.012 44.9278 132.381 45.6275 132.739L45.0909 133.806ZM107.32 132.52L106.74 131.475C107.425 131.091 108.103 130.693 108.771 130.28L109.387 131.303C108.705 131.719 108.016 132.125 107.32 132.52ZM40.8814 131.467C40.1925 131.051 39.5145 130.623 38.8437 130.181L39.4927 129.18C40.149 129.611 40.8161 130.031 41.4905 130.441L40.8814 131.467ZM111.41 130.013L110.757 129.016C111.414 128.581 112.063 128.131 112.701 127.675L113.39 128.65C112.737 129.118 112.077 129.571 111.41 130.013ZM36.8568 128.822C36.2005 128.358 35.5551 127.879 34.9206 127.393L35.6385 126.443C36.2658 126.922 36.8966 127.39 37.542 127.846L36.8568 128.822ZM115.315 127.214L114.594 126.264C115.217 125.782 115.83 125.289 116.435 124.788L117.19 125.709C116.573 126.224 115.953 126.725 115.315 127.214ZM33.0352 125.895C32.4152 125.384 31.806 124.861 31.2042 124.328L31.991 123.429C32.5783 123.951 33.1766 124.466 33.7857 124.967L33.0352 125.895ZM119.01 124.138L118.223 123.242C118.81 122.716 119.387 122.179 119.952 121.635L120.772 122.501C120.195 123.056 119.608 123.604 119.01 124.138ZM29.4348 122.698C28.8547 122.143 28.2854 121.576 27.7234 121.003L28.5718 120.166C29.1193 120.732 29.6813 121.288 30.2506 121.832L29.4348 122.698ZM122.476 120.798L121.628 119.965C122.171 119.399 122.712 118.821 123.237 118.233L124.118 119.037C123.578 119.632 123.034 120.221 122.476 120.798ZM26.0773 119.245C25.5371 118.649 25.0113 118.043 24.4928 117.429L25.3993 116.654C25.9069 117.261 26.4254 117.853 26.9547 118.438L26.0773 119.245ZM125.692 117.21L124.782 116.439C125.286 115.832 125.783 115.218 126.265 114.594L127.2 115.328C126.711 115.968 126.207 116.596 125.692 117.21ZM22.9773 115.558C22.4842 114.926 22.0019 114.283 21.5306 113.633L22.4914 112.927C22.9555 113.567 23.4269 114.199 23.9127 114.82L22.9773 115.558ZM128.643 113.399L127.683 112.697C128.143 112.058 128.593 111.404 129.028 110.746L130.014 111.407C129.568 112.08 129.115 112.745 128.643 113.399ZM20.1528 111.656C19.7068 110.987 19.2717 110.311 18.8475 109.628L19.8555 108.996C20.2688 109.668 20.6966 110.33 21.1354 110.987L20.1528 111.656ZM131.312 109.372L130.3 108.747C130.71 108.071 131.113 107.392 131.501 106.701L132.53 107.29C132.139 107.991 131.729 108.689 131.312 109.372ZM17.6184 107.556C17.2231 106.858 16.8352 106.153 16.4654 105.441L17.5168 104.885C17.8794 105.583 18.2565 106.277 18.6481 106.961L17.6184 107.556ZM133.68 105.163L132.628 104.611C132.991 103.91 133.339 103.197 133.676 102.481L134.749 102.993C134.405 103.723 134.049 104.447 133.68 105.163ZM15.3921 103.285C15.0477 102.561 14.7177 101.831 14.3987 101.093L15.4864 100.614C15.8018 101.337 16.1245 102.057 16.4654 102.77L15.3921 103.285ZM135.735 100.782L134.644 100.311C134.952 99.5834 135.25 98.849 135.532 98.1073L136.642 98.5384C136.352 99.2911 136.051 100.04 135.735 100.782ZM13.485 98.8636C13.1949 98.1146 12.9157 97.3582 12.6547 96.5945L13.775 96.1999C14.0361 96.949 14.308 97.6907 14.5945 98.4288L13.485 98.8636ZM137.465 96.2584L136.345 95.8711C136.598 95.122 136.841 94.3657 137.07 93.6057L138.205 93.9528C137.969 94.7274 137.722 95.4984 137.465 96.2584ZM11.9041 94.2962C11.6685 93.5253 11.4473 92.7506 11.2406 91.9724L12.3864 91.6654C12.5894 92.4328 12.8069 93.1928 13.0354 93.9455L11.9041 94.2962ZM138.85 91.6216L137.701 91.322C137.896 90.5583 138.081 89.7873 138.255 89.0127L139.416 89.2721C139.242 90.0614 139.053 90.847 138.85 91.6216ZM10.6641 89.6266C10.4864 88.841 10.3233 88.0517 10.1746 87.2588L11.3421 87.0359C11.4872 87.8142 11.6503 88.5889 11.8244 89.3598L10.6641 89.6266ZM139.894 86.9044L138.727 86.6888C138.868 85.9142 138.995 85.1323 139.111 84.3467L140.286 84.5221C140.166 85.3186 140.036 86.1152 139.894 86.9044ZM9.77217 84.8765C9.65252 84.0836 9.54737 83.2834 9.45672 82.4795L10.6351 82.3443C10.7221 83.1336 10.8273 83.9192 10.9433 84.6974L9.77217 84.8765ZM140.583 82.1178L139.405 81.9899C139.488 81.2043 139.557 80.4187 139.615 79.6258L140.801 79.7099C140.739 80.5174 140.67 81.3212 140.583 82.1178ZM9.2283 80.0716C9.16666 79.2714 9.12315 78.4675 9.09052 77.6564L10.2761 77.6089C10.3052 78.4018 10.3523 79.191 10.4139 79.9803L9.2283 80.0716ZM140.924 77.2983L139.738 77.2544C139.764 76.5054 139.778 75.7527 139.778 75L140.964 74.8794V75C140.964 75.771 140.953 76.5346 140.924 77.2983ZM10.2254 75.2411H9.03613V75.0037C9.03613 74.1961 9.05064 73.3886 9.07964 72.5848L10.2653 72.6286C10.2363 73.4179 10.2218 74.2071 10.2218 75V75.2411H10.2254ZM139.731 72.508C139.702 71.7151 139.659 70.9259 139.597 70.1367L140.783 70.0453C140.841 70.8455 140.888 71.653 140.92 72.4605L139.731 72.508ZM10.3958 70.2572L9.21017 70.1695C9.26818 69.362 9.3407 68.5618 9.42772 67.7616L10.6061 67.8932C10.5227 68.6787 10.4538 69.4643 10.3958 70.2572ZM139.379 67.7762C139.292 66.987 139.191 66.2014 139.075 65.4231L140.25 65.2441C140.369 66.0406 140.471 66.8372 140.561 67.641L139.379 67.7762ZM10.9107 65.54L9.73591 65.3647C9.85193 64.5645 9.98246 63.7679 10.1311 62.9787L11.2986 63.1979C11.1536 63.9762 11.0267 64.7545 10.9107 65.54ZM138.683 63.081C138.538 62.299 138.379 61.5244 138.208 60.7571L139.365 60.494C139.543 61.2796 139.702 62.0652 139.851 62.8617L138.683 63.081ZM11.77 60.874L10.6097 60.6109C10.7874 59.8217 10.9759 59.0398 11.179 58.2615L12.3247 58.5648C12.1289 59.3284 11.9404 60.0994 11.77 60.874ZM137.643 58.4515C137.443 57.6842 137.226 56.9241 136.997 56.1714L138.132 55.8207C138.364 56.5916 138.585 57.3663 138.792 58.1446L137.643 58.4515ZM12.9701 56.2847L11.8352 55.9376C12.0709 55.163 12.3175 54.392 12.5785 53.632L13.6989 54.023C13.4451 54.7684 13.1985 55.5211 12.9701 56.2847ZM136.265 53.9133C136.007 53.1643 135.739 52.4225 135.453 51.6845L136.559 51.2496C136.849 51.9987 137.124 52.7551 137.389 53.5187L136.265 53.9133ZM14.5111 51.7831L13.4052 51.352C13.6953 50.5992 13.9962 49.8502 14.3153 49.1085L15.403 49.5798C15.0912 50.3106 14.7939 51.045 14.5111 51.7831ZM134.561 49.4958C134.249 48.7723 133.926 48.0525 133.589 47.34L134.659 46.8248C135.003 47.5482 135.329 48.2827 135.648 49.0208L134.561 49.4958ZM16.3783 47.413L15.3051 46.9015C15.6496 46.1707 16.0049 45.4473 16.3783 44.7311L17.4298 45.2828C17.0636 45.988 16.7155 46.6969 16.3783 47.413ZM132.538 45.2207C132.175 44.5192 131.798 43.8286 131.41 43.1416L132.44 42.5497C132.835 43.2476 133.216 43.9528 133.589 44.6653L132.538 45.2207ZM18.5574 43.2001L17.5241 42.6082C17.9193 41.9066 18.329 41.2124 18.7532 40.5254L19.7612 41.1539C19.3479 41.8299 18.9454 42.5095 18.5574 43.2001ZM130.21 41.1064C129.796 40.4341 129.372 39.7691 128.934 39.115L129.92 38.4464C130.366 39.115 130.801 39.791 131.221 40.4743L130.21 41.1064ZM21.0375 39.1589L20.0513 38.4939C20.4972 37.8252 20.9541 37.1602 21.4254 36.5098L22.3863 37.2114C21.9258 37.8508 21.4762 38.5012 21.0375 39.1589ZM127.585 37.1675C127.121 36.5281 126.649 35.896 126.167 35.2748L127.102 34.5367C127.596 35.1688 128.078 35.8119 128.546 36.466L127.585 37.1675ZM23.8076 35.315L22.8721 34.5769C23.3652 33.9411 23.8692 33.3163 24.3841 32.6988L25.2905 33.4698C24.7865 34.0763 24.2898 34.6902 23.8076 35.315ZM124.68 33.4332C124.176 32.8303 123.658 32.2347 123.129 31.6501L124.006 30.8463C124.543 31.4418 125.072 32.0484 125.587 32.6659L124.68 33.4332ZM26.8424 31.683L25.9649 30.8792C26.5015 30.2836 27.049 29.6953 27.611 29.118L28.4595 29.9547C27.9083 30.5211 27.3717 31.0984 26.8424 31.683ZM121.508 29.9218C120.96 29.3555 120.402 28.8001 119.833 28.2556L120.652 27.3897C121.232 27.9451 121.802 28.5114 122.36 29.0887L121.508 29.9218ZM30.1346 28.2849L29.3151 27.4189C29.8953 26.8635 30.4826 26.3191 31.0809 25.782L31.8677 26.6772C31.2803 27.207 30.7038 27.7404 30.1346 28.2849ZM118.1 26.6479C117.512 26.1218 116.914 25.6102 116.305 25.106L117.059 24.1816C117.679 24.6931 118.288 25.2156 118.886 25.7527L118.1 26.6479ZM33.6588 25.1389L32.9047 24.2144C33.521 23.7029 34.1447 23.2023 34.7828 22.7127L35.5043 23.6627C34.8771 24.145 34.2643 24.6383 33.6588 25.1389ZM114.456 23.6298C113.832 23.1511 113.198 22.6798 112.556 22.2231L113.241 21.2475C113.894 21.7152 114.539 22.1902 115.177 22.6798L114.456 23.6298ZM37.397 22.2596L36.7117 21.284C37.3644 20.82 38.0206 20.3669 38.6914 19.9248L39.344 20.9259C38.6842 21.3571 38.0351 21.8029 37.397 22.2596ZM110.605 20.8894C109.949 20.4546 109.282 20.0344 108.607 19.6251L109.22 18.602C109.909 19.0186 110.583 19.4497 111.254 19.8919L110.605 20.8894ZM41.331 19.6617L40.7182 18.6386C41.3999 18.222 42.0924 17.8201 42.7885 17.4255L43.365 18.4705C42.6761 18.8578 42.0018 19.2524 41.331 19.6617ZM106.566 18.4303C105.881 18.0467 105.185 17.674 104.481 17.3159L105.018 16.2489C105.732 16.6143 106.439 16.9943 107.143 17.3853L106.566 18.4303ZM45.439 17.3561L44.8987 16.2891C45.6094 15.9237 46.3273 15.573 47.0525 15.2331L47.5528 16.3184C46.8385 16.6545 46.1351 16.998 45.439 17.3561ZM102.357 16.2782C101.642 15.9457 100.921 15.6241 100.196 15.3172L100.656 14.2137C101.396 14.5279 102.128 14.8531 102.857 15.1893L102.357 16.2782ZM49.6993 15.361L49.2388 14.2576C49.9748 13.947 50.7181 13.6474 51.4687 13.3587L51.8893 14.4768C51.1496 14.7618 50.4208 15.0541 49.6993 15.361ZM98.002 14.4366C97.2659 14.1552 96.5263 13.8922 95.7757 13.6364L96.1528 12.5037C96.9142 12.7631 97.672 13.0335 98.4189 13.3185L98.002 14.4366ZM54.1046 13.6802L53.7239 12.5475C54.4781 12.2881 55.2431 12.0469 56.0118 11.8167L56.349 12.9641C55.5948 13.187 54.8479 13.4245 54.1046 13.6802ZM93.5314 12.9239C92.7772 12.701 92.023 12.4891 91.258 12.2918L91.5517 11.1335C92.3276 11.3344 93.0999 11.55 93.8649 11.7766L93.5314 12.9239ZM58.6187 12.3246L58.3214 11.1664C59.0937 10.9654 59.8696 10.779 60.6528 10.6037L60.9066 11.7729C60.1415 11.941 59.3765 12.1273 58.6187 12.3246ZM88.9665 11.7437C88.2015 11.5756 87.4292 11.4221 86.6533 11.2796L86.8635 10.1031C87.654 10.2456 88.4371 10.4027 89.2167 10.5744L88.9665 11.7437ZM63.2198 11.3016L63.0059 10.125C63.7891 9.97884 64.5795 9.85095 65.3735 9.73403L65.544 10.9179C64.7644 11.0348 63.9921 11.1627 63.2198 11.3016ZM84.3291 10.9033C83.5568 10.79 82.7773 10.6913 81.9941 10.6073L82.121 9.41979C82.9187 9.50383 83.7128 9.60614 84.5032 9.71941L84.3291 10.9033ZM67.8826 10.6219L67.7557 9.43441C68.5461 9.34671 69.3438 9.27364 70.1451 9.21883L70.2321 10.41C69.4417 10.4648 68.6585 10.5379 67.8826 10.6219ZM79.6446 10.399C78.8651 10.3442 78.0783 10.304 77.2915 10.2748L77.335 9.07998C78.1363 9.10921 78.934 9.1494 79.728 9.20421L79.6446 10.399ZM72.5816 10.2785L72.5381 9.08363C73.3358 9.0544 74.1334 9.03979 74.9384 9.03613V10.231C74.1479 10.2346 73.3648 10.2492 72.5816 10.2785Z"
            fill="url(#paint1_linear_316_5622)" />
      <path
            d="M75 147.108C35.2374 147.108 2.8916 114.759 2.8916 75C2.8916 35.2374 35.241 2.8916 75 2.8916C114.759 2.8916 147.108 35.2374 147.108 75C147.108 114.759 114.763 147.108 75 147.108ZM75 7.61931C37.847 7.61931 7.62293 37.8434 7.62293 74.9964C7.62293 112.149 37.8506 142.374 75 142.374C112.153 142.374 142.377 112.149 142.377 74.9964C142.377 37.847 112.153 7.61931 75 7.61931Z"
            fill="url(#paint2_linear_316_5622)" />
      <circle cx="75.0003" cy="75.0003" r="58.012" fill="url(#paint3_linear_316_5622)" />
      <defs>
            <linearGradient id="paint0_linear_316_5622" x1="0.00277925" y1="75.0014" x2="150"
                  y2="75.0014" gradientUnits="userSpaceOnUse">
                  <stop stop-color="#F9EDBC" />
                  <stop offset="0.4577" stop-color="#BF8D34" />
                  <stop offset="1" stop-color="#E0B14E" />
            </linearGradient>
            <linearGradient id="paint1_linear_316_5622" x1="9.03729" y1="75.0012" x2="140.964"
                  y2="75.0012" gradientUnits="userSpaceOnUse">
                  <stop stop-color="#F9EDBC" />
                  <stop offset="0.4577" stop-color="#BF8D34" />
                  <stop offset="1" stop-color="#E0B14E" />
            </linearGradient>
            <linearGradient id="paint2_linear_316_5622" x1="2.89138" y1="74.9978" x2="147.11"
                  y2="74.9978" gradientUnits="userSpaceOnUse">
                  <stop stop-color="#F9EDBC" />
                  <stop offset="0.4577" stop-color="#BF8D34" />
                  <stop offset="1" stop-color="#E0B14E" />
            </linearGradient>
            <linearGradient id="paint3_linear_316_5622" x1="16.9888" y1="75.0015" x2="133.013"
                  y2="75.0015" gradientUnits="userSpaceOnUse">
                  <stop stop-color="#F9EDBC" />
                  <stop offset="0.4577" stop-color="#BF8D34" />
                  <stop offset="1" stop-color="#E0B14E" />
            </linearGradient>
      </defs>
</svg>
      