<svg width="21" height="21" viewBox="0 0 21 21" fill="none" xmlns="http://www.w3.org/2000/svg">
<path d="M6.09807 6.09787C6.15903 6.03676 6.23145 5.98827 6.31118 5.95519C6.39091 5.9221 6.47638 5.90508 6.5627 5.90508C6.64902 5.90508 6.73449 5.9221 6.81422 5.95519C6.89394 5.98827 6.96636 6.03676 7.02732 6.09787L10.5002 9.57206L13.9731 6.09787C14.0341 6.03686 14.1065 5.98846 14.1862 5.95544C14.266 5.92241 14.3514 5.90542 14.4377 5.90542C14.524 5.90542 14.6094 5.92241 14.6891 5.95544C14.7689 5.98846 14.8413 6.03686 14.9023 6.09787C14.9633 6.15889 15.0117 6.23132 15.0448 6.31104C15.0778 6.39076 15.0948 6.47621 15.0948 6.5625C15.0948 6.64879 15.0778 6.73423 15.0448 6.81395C15.0117 6.89367 14.9633 6.96611 14.9023 7.02712L11.4281 10.5L14.9023 13.9729C14.9633 14.0339 15.0117 14.1063 15.0448 14.186C15.0778 14.2658 15.0948 14.3512 15.0948 14.4375C15.0948 14.5238 15.0778 14.6092 15.0448 14.689C15.0117 14.7687 14.9633 14.8411 14.9023 14.9021C14.8413 14.9631 14.7689 15.0115 14.6891 15.0446C14.6094 15.0776 14.524 15.0946 14.4377 15.0946C14.3514 15.0946 14.266 15.0776 14.1862 15.0446C14.1065 15.0115 14.0341 14.9631 13.9731 14.9021L10.5002 11.4279L7.02732 14.9021C6.96631 14.9631 6.89387 15.0115 6.81415 15.0446C6.73443 15.0776 6.64899 15.0946 6.5627 15.0946C6.47641 15.0946 6.39096 15.0776 6.31124 15.0446C6.23152 15.0115 6.15909 14.9631 6.09807 14.9021C6.03706 14.8411 5.98866 14.7687 5.95563 14.689C5.92261 14.6092 5.90562 14.5238 5.90562 14.4375C5.90562 14.3512 5.92261 14.2658 5.95563 14.186C5.98866 14.1063 6.03706 14.0339 6.09807 13.9729L9.57226 10.5L6.09807 7.02712C6.03696 6.96616 5.98847 6.89375 5.95539 6.81402C5.9223 6.73429 5.90527 6.64882 5.90527 6.5625C5.90527 6.47618 5.9223 6.39071 5.95539 6.31098C5.98847 6.23125 6.03696 6.15883 6.09807 6.09787Z" fill="#42526E"/>
</svg>
