<svg width="14" height="23" viewBox="0 0 14 23" fill="none" xmlns="http://www.w3.org/2000/svg">
      <path
            d="M7.65975 4.29872C7.69358 4.33168 7.83825 4.45613 7.95725 4.57206C8.70567 5.25172 9.93067 7.02473 10.3046 7.95272C10.3647 8.09365 10.4918 8.44996 10.5 8.64033C10.5 8.82275 10.458 8.99664 10.3728 9.16258C10.2538 9.36943 10.0666 9.53537 9.8455 9.62629C9.69208 9.68482 9.233 9.77574 9.22483 9.77574C8.72258 9.86667 7.9065 9.91668 7.00467 9.91668C6.14542 9.91668 5.36258 9.86667 4.85275 9.79223C4.84458 9.7837 4.27408 9.69278 4.07867 9.59333C3.72167 9.41091 3.5 9.05461 3.5 8.67329V8.64033C3.50875 8.392 3.73042 7.86975 3.73858 7.86975C4.11308 6.99177 5.278 5.25967 6.05208 4.56354C6.05208 4.56354 6.251 4.36748 6.37525 4.28224C6.55375 4.14926 6.77483 4.08334 6.99592 4.08334C7.24267 4.08334 7.4725 4.15779 7.65975 4.29872"
            stroke="#9EA3A9" />
      <path
            d="M6.34025 18.7013C6.30642 18.6683 6.16175 18.5439 6.04275 18.428C5.29433 17.7483 4.06933 15.9753 3.69542 15.0473C3.63533 14.9064 3.50817 14.5501 3.5 14.3597C3.5 14.1773 3.542 14.0034 3.62717 13.8374C3.74617 13.6306 3.93342 13.4647 4.1545 13.3737C4.30792 13.3152 4.767 13.2243 4.77517 13.2243C5.27742 13.1334 6.0935 13.0833 6.99533 13.0833C7.85458 13.0833 8.63742 13.1334 9.14725 13.2078C9.15542 13.2163 9.72592 13.3072 9.92133 13.4067C10.2783 13.5891 10.5 13.9454 10.5 14.3267V14.3597C10.4912 14.608 10.2696 15.1303 10.2614 15.1303C9.88692 16.0083 8.722 17.7403 7.94792 18.4365C7.94792 18.4365 7.749 18.6325 7.62475 18.7178C7.44625 18.8508 7.22517 18.9167 7.00408 18.9167C6.75733 18.9167 6.5275 18.8422 6.34025 18.7013"
            stroke="#9EA3A9" />
</svg>
      