<svg width="21" height="21" viewBox="0 0 21 21" fill="none" xmlns="http://www.w3.org/2000/svg">
      <path
            d="M6.09709 6.09783C6.15805 6.03671 6.23047 5.98823 6.3102 5.95514C6.38993 5.92206 6.4754 5.90503 6.56172 5.90503C6.64804 5.90503 6.73351 5.92206 6.81324 5.95514C6.89297 5.98823 6.96538 6.03671 7.02634 6.09783L10.4992 9.57201L13.9721 6.09783C14.0331 6.03681 14.1055 5.98841 14.1853 5.95539C14.265 5.92237 14.3504 5.90537 14.4367 5.90537C14.523 5.90537 14.6085 5.92237 14.6882 5.95539C14.7679 5.98841 14.8403 6.03681 14.9013 6.09783C14.9624 6.15884 15.0108 6.23128 15.0438 6.311C15.0768 6.39072 15.0938 6.47616 15.0938 6.56245C15.0938 6.64874 15.0768 6.73419 15.0438 6.81391C15.0108 6.89363 14.9624 6.96606 14.9013 7.02708L11.4272 10.5L14.9013 13.9728C14.9624 14.0338 15.0108 14.1063 15.0438 14.186C15.0768 14.2657 15.0938 14.3512 15.0938 14.4375C15.0938 14.5237 15.0768 14.6092 15.0438 14.6889C15.0108 14.7686 14.9624 14.8411 14.9013 14.9021C14.8403 14.9631 14.7679 15.0115 14.6882 15.0445C14.6085 15.0775 14.523 15.0945 14.4367 15.0945C14.3504 15.0945 14.265 15.0775 14.1853 15.0445C14.1055 15.0115 14.0331 14.9631 13.9721 14.9021L10.4992 11.4279L7.02634 14.9021C6.96533 14.9631 6.89289 15.0115 6.81317 15.0445C6.73345 15.0775 6.64801 15.0945 6.56172 15.0945C6.47543 15.0945 6.38999 15.0775 6.31027 15.0445C6.23055 15.0115 6.15811 14.9631 6.09709 14.9021C6.03608 14.8411 5.98768 14.7686 5.95466 14.6889C5.92164 14.6092 5.90464 14.5237 5.90464 14.4375C5.90464 14.3512 5.92164 14.2657 5.95466 14.186C5.98768 14.1063 6.03608 14.0338 6.09709 13.9728L9.57128 10.5L6.09709 7.02708C6.03598 6.96612 5.98749 6.8937 5.95441 6.81397C5.92133 6.73424 5.9043 6.64877 5.9043 6.56245C5.9043 6.47613 5.92133 6.39066 5.95441 6.31093C5.98749 6.2312 6.03598 6.15879 6.09709 6.09783Z"
            fill="#42526E" />
</svg>
      