<svg width="21" height="21" viewBox="0 0 21 21" fill="none" xmlns="http://www.w3.org/2000/svg">
      <path
            d="M6.125 18.375C5.64375 18.375 5.23192 18.2038 4.8895 17.8614C4.5465 17.5184 4.375 17.1062 4.375 16.625V5.25C4.12708 5.25 3.91913 5.16629 3.75113 4.99887C3.58371 4.83087 3.5 4.62292 3.5 4.375C3.5 4.12708 3.58371 3.91913 3.75113 3.75113C3.91913 3.58371 4.12708 3.5 4.375 3.5H7.875C7.875 3.25208 7.959 3.04412 8.127 2.87612C8.29442 2.70871 8.50208 2.625 8.75 2.625H12.25C12.4979 2.625 12.7059 2.70871 12.8739 2.87612C13.0413 3.04412 13.125 3.25208 13.125 3.5H16.625C16.8729 3.5 17.0806 3.58371 17.248 3.75113C17.416 3.91913 17.5 4.12708 17.5 4.375C17.5 4.62292 17.416 4.83087 17.248 4.99887C17.0806 5.16629 16.8729 5.25 16.625 5.25V16.625C16.625 17.1062 16.4538 17.5184 16.1114 17.8614C15.7684 18.2038 15.3562 18.375 14.875 18.375H6.125ZM6.125 5.25V16.625H14.875V5.25H6.125ZM7.875 14C7.875 14.2479 7.959 14.4556 8.127 14.623C8.29442 14.791 8.50208 14.875 8.75 14.875C8.99792 14.875 9.20588 14.791 9.37388 14.623C9.54129 14.4556 9.625 14.2479 9.625 14V7.875C9.625 7.62708 9.54129 7.41912 9.37388 7.25112C9.20588 7.08371 8.99792 7 8.75 7C8.50208 7 8.29442 7.08371 8.127 7.25112C7.959 7.41912 7.875 7.62708 7.875 7.875V14ZM11.375 14C11.375 14.2479 11.459 14.4556 11.627 14.623C11.7944 14.791 12.0021 14.875 12.25 14.875C12.4979 14.875 12.7059 14.791 12.8739 14.623C13.0413 14.4556 13.125 14.2479 13.125 14V7.875C13.125 7.62708 13.0413 7.41912 12.8739 7.25112C12.7059 7.08371 12.4979 7 12.25 7C12.0021 7 11.7944 7.08371 11.627 7.25112C11.459 7.41912 11.375 7.62708 11.375 7.875V14ZM6.125 5.25V16.625V5.25Z"
            fill="#42526E" />
</svg>
      