<svg width="18" height="18" viewBox="0 0 18 18" fill="none" xmlns="http://www.w3.org/2000/svg">
      <path
            d="M16.875 6.42037L16.0796 5.625L13.5 8.20463L10.9204 5.625L10.125 6.42037L12.7046 9L10.125 11.5791L10.9209 12.375L13.5 9.79537L16.0802 12.375L16.875 11.5802L14.2954 9L16.875 6.42037Z"
            fill="#1890FF" />
      <path
            d="M2.25 2.25C1.95163 2.25 1.66548 2.36853 1.4545 2.5795C1.24353 2.79048 1.125 3.07663 1.125 3.375V5.15812C1.12496 5.30594 1.15405 5.45232 1.21061 5.5889C1.26717 5.72547 1.35008 5.84955 1.45463 5.95406L5.625 10.125V14.625C5.625 14.9234 5.74353 15.2095 5.9545 15.4205C6.16548 15.6315 6.45163 15.75 6.75 15.75H9C9.29837 15.75 9.58452 15.6315 9.7955 15.4205C10.0065 15.2095 10.125 14.9234 10.125 14.625V13.5H9V14.625H6.75V9.65812L6.42037 9.32906L2.25 5.15869V3.375H13.5V4.5H14.625V3.375C14.625 3.07663 14.5065 2.79048 14.2955 2.5795C14.0845 2.36853 13.7984 2.25 13.5 2.25H2.25Z"
            fill="#1890FF" />
</svg>
      