<svg width="42" height="42" viewBox="0 0 42 42" fill="none" xmlns="http://www.w3.org/2000/svg">
      <g filter="url(#filter0_dd_86_5142)">
            <rect x="5" y="2" width="32" height="32" rx="3" fill="white" />
            <rect x="5" y="2" width="32" height="32" rx="3" fill="#091E42" fill-opacity="0.04" />
            <rect width="16" height="16" transform="translate(13 10)" fill="white"
                  fill-opacity="0.01" />
            <path
                  d="M20.9998 17.0574L17.4711 13.5287C17.3454 13.4073 17.177 13.3401 17.0022 13.3416C16.8274 13.3431 16.6602 13.4132 16.5366 13.5368C16.413 13.6604 16.3429 13.8277 16.3413 14.0025C16.3398 14.1773 16.407 14.3457 16.5285 14.4714L20.0571 18.0001L16.5285 21.5287C16.407 21.6545 16.3398 21.8229 16.3413 21.9977C16.3429 22.1725 16.413 22.3397 16.5366 22.4633C16.6602 22.5869 16.8274 22.657 17.0022 22.6585C17.177 22.66 17.3454 22.5928 17.4711 22.4714L20.9998 18.9427L24.5285 22.4714C24.6542 22.5928 24.8226 22.66 24.9974 22.6585C25.1722 22.657 25.3394 22.5869 25.463 22.4633C25.5866 22.3397 25.6567 22.1725 25.6582 21.9977C25.6598 21.8229 25.5926 21.6545 25.4711 21.5287L21.9424 18.0001L25.4711 14.4714C25.5348 14.4099 25.5856 14.3363 25.6205 14.255C25.6555 14.1737 25.6738 14.0862 25.6746 13.9977C25.6754 13.9091 25.6585 13.8213 25.625 13.7394C25.5915 13.6575 25.542 13.5831 25.4794 13.5205C25.4168 13.4579 25.3424 13.4084 25.2604 13.3748C25.1785 13.3413 25.0907 13.3245 25.0022 13.3252C24.9137 13.326 24.8262 13.3444 24.7448 13.3793C24.6635 13.4143 24.5899 13.465 24.5285 13.5287L20.9998 17.0574Z"
                  fill="#42526E" />
      </g>
      <defs>
            <filter id="filter0_dd_86_5142" x="0" y="0" width="42" height="42"
                  filterUnits="userSpaceOnUse" color-interpolation-filters="sRGB">
                  <feFlood flood-opacity="0" result="BackgroundImageFix" />
                  <feColorMatrix in="SourceAlpha" type="matrix"
                        values="0 0 0 0 0 0 0 0 0 0 0 0 0 0 0 0 0 0 127 0" result="hardAlpha" />
                  <feOffset />
                  <feGaussianBlur stdDeviation="0.5" />
                  <feColorMatrix type="matrix"
                        values="0 0 0 0 0.0352941 0 0 0 0 0.117647 0 0 0 0 0.258824 0 0 0 0.31 0" />
                  <feBlend mode="normal" in2="BackgroundImageFix"
                        result="effect1_dropShadow_86_5142" />
                  <feColorMatrix in="SourceAlpha" type="matrix"
                        values="0 0 0 0 0 0 0 0 0 0 0 0 0 0 0 0 0 0 127 0" result="hardAlpha" />
                  <feOffset dy="3" />
                  <feGaussianBlur stdDeviation="2.5" />
                  <feColorMatrix type="matrix"
                        values="0 0 0 0 0.0352941 0 0 0 0 0.117647 0 0 0 0 0.258824 0 0 0 0.2 0" />
                  <feBlend mode="normal" in2="effect1_dropShadow_86_5142"
                        result="effect2_dropShadow_86_5142" />
                  <feBlend mode="normal" in="SourceGraphic" in2="effect2_dropShadow_86_5142"
                        result="shape" />
            </filter>
      </defs>
</svg>
      