<svg width="42" height="42" viewBox="0 0 42 42" fill="none" xmlns="http://www.w3.org/2000/svg">
      <g filter="url(#filter0_dd_86_5139)">
            <rect x="5" y="2" width="32" height="32" rx="3" fill="white" />
            <rect x="5" y="2" width="32" height="32" rx="3" fill="#091E42" fill-opacity="0.04" />
            <rect width="16" height="16" transform="translate(13 10)" fill="white"
                  fill-opacity="0.01" />
            <path
                  d="M17.4898 18.2146C17.3694 18.0866 17.2034 18.0113 17.0278 18.005C16.8522 17.9988 16.6812 18.0621 16.552 18.1813C16.4229 18.3004 16.346 18.4657 16.3381 18.6412C16.3302 18.8168 16.3919 18.9883 16.5098 19.1186L18.9178 21.7313C19.2758 22.082 19.8091 22.082 20.1404 21.7513L20.3831 21.512C21.2594 20.6501 22.1348 19.7872 23.0091 18.9233L23.0358 18.8966C23.8529 18.0913 24.6658 17.2818 25.4744 16.468C25.5953 16.3414 25.6615 16.1724 25.6589 15.9975C25.6563 15.8225 25.585 15.6556 25.4604 15.5328C25.3358 15.4099 25.1679 15.341 24.9929 15.3408C24.8179 15.3407 24.6499 15.4093 24.5251 15.532C23.7202 16.3415 22.9113 17.1471 22.0984 17.9486L22.0718 17.9753C21.2339 18.8035 20.395 19.6306 19.5551 20.4566L17.4898 18.2146Z"
                  fill="#42526E" />
      </g>
      <defs>
            <filter id="filter0_dd_86_5139" x="0" y="0" width="42" height="42"
                  filterUnits="userSpaceOnUse" color-interpolation-filters="sRGB">
                  <feFlood flood-opacity="0" result="BackgroundImageFix" />
                  <feColorMatrix in="SourceAlpha" type="matrix"
                        values="0 0 0 0 0 0 0 0 0 0 0 0 0 0 0 0 0 0 127 0" result="hardAlpha" />
                  <feOffset />
                  <feGaussianBlur stdDeviation="0.5" />
                  <feColorMatrix type="matrix"
                        values="0 0 0 0 0.0352941 0 0 0 0 0.117647 0 0 0 0 0.258824 0 0 0 0.31 0" />
                  <feBlend mode="normal" in2="BackgroundImageFix"
                        result="effect1_dropShadow_86_5139" />
                  <feColorMatrix in="SourceAlpha" type="matrix"
                        values="0 0 0 0 0 0 0 0 0 0 0 0 0 0 0 0 0 0 127 0" result="hardAlpha" />
                  <feOffset dy="3" />
                  <feGaussianBlur stdDeviation="2.5" />
                  <feColorMatrix type="matrix"
                        values="0 0 0 0 0.0352941 0 0 0 0 0.117647 0 0 0 0 0.258824 0 0 0 0.2 0" />
                  <feBlend mode="normal" in2="effect1_dropShadow_86_5139"
                        result="effect2_dropShadow_86_5139" />
                  <feBlend mode="normal" in="SourceGraphic" in2="effect2_dropShadow_86_5139"
                        result="shape" />
            </filter>
      </defs>
</svg>
      